<svg width="108" height="108" viewBox="0 0 108 108" fill="none" xmlns="http://www.w3.org/2000/svg">
<g filter="url(#filter0_d_266_1930)">
<path fill-rule="evenodd" clip-rule="evenodd" d="M70.4697 15.8553C71.6228 14.6614 73.0021 13.7091 74.5271 13.054C76.0522 12.3989 77.6924 12.0541 79.3522 12.0397C81.0119 12.0252 82.6579 12.3415 84.1941 12.97C85.7303 13.5985 87.126 14.5267 88.2996 15.7004C89.4733 16.874 90.4015 18.2697 91.03 19.8059C91.6585 21.3421 91.9748 22.9881 91.9603 24.6478C91.9459 26.3076 91.6011 27.9478 90.946 29.4729C90.2908 30.9979 89.3386 32.3772 88.1447 33.5303L69.3947 52.2803C67.0506 54.6237 63.8717 55.9401 60.5572 55.9401C57.2426 55.9401 54.0638 54.6237 51.7197 52.2803C50.5409 51.1418 48.9622 50.5118 47.3234 50.5261C45.6847 50.5403 44.1171 51.1976 42.9583 52.3564C41.7995 53.5152 41.1422 55.0828 41.128 56.7215C41.1138 58.3603 41.7437 59.939 42.8822 61.1178C47.5704 65.8046 53.9281 68.4375 60.5572 68.4375C67.1863 68.4375 73.544 65.8046 78.2322 61.1178L96.9822 42.3678C101.536 37.6527 104.056 31.3377 103.999 24.7828C103.942 18.2278 101.313 11.9575 96.6777 7.32233C92.0425 2.68713 85.7721 0.0579055 79.2172 0.000945065C72.6623 -0.0560154 66.3473 2.46384 61.6322 7.0178L52.2572 16.3928C51.6603 16.9693 51.1841 17.659 50.8566 18.4215C50.529 19.184 50.3566 20.0042 50.3494 20.834C50.3422 21.6639 50.5003 22.4869 50.8146 23.255C51.1288 24.0231 51.5929 24.7209 52.1797 25.3078C52.7666 25.8946 53.4644 26.3587 54.2325 26.6729C55.0006 26.9872 55.8236 27.1453 56.6535 27.1381C57.4833 27.1309 58.3034 26.9585 59.066 26.6309C59.8285 26.3034 60.5182 25.8272 61.0947 25.2303L70.4697 15.8553ZM39.2197 47.1053C41.5638 44.7619 44.7426 43.4455 48.0572 43.4455C51.3718 43.4455 54.5506 44.7619 56.8947 47.1053C57.4712 47.7022 58.1609 48.1784 58.9234 48.5059C59.6859 48.8335 60.5061 49.0059 61.3359 49.0131C62.1658 49.0203 62.9888 48.8622 63.7569 48.5479C64.525 48.2337 65.2228 47.7696 65.8097 47.1828C66.3965 46.5959 66.8606 45.8981 67.1748 45.13C67.4891 44.3619 67.6472 43.5389 67.64 42.709C67.6328 41.8792 67.4604 41.059 67.1328 40.2965C66.8053 39.534 66.3291 38.8443 65.7322 38.2678C61.044 33.581 54.6863 30.9481 48.0572 30.9481C41.4281 30.9481 35.0704 33.581 30.3822 38.2678L11.6322 57.0178C9.24445 59.324 7.3399 62.0826 6.02967 65.1327C4.71945 68.1828 4.02979 71.4633 4.00094 74.7828C3.9721 78.1022 4.60464 81.3942 5.86166 84.4666C7.11869 87.5391 8.97501 90.3304 11.3223 92.6777C13.6696 95.025 16.4609 96.8813 19.5334 98.1383C22.6058 99.3954 25.8978 100.028 29.2172 99.9991C32.5367 99.9702 35.8172 99.2806 38.8673 97.9703C41.9174 96.6601 44.676 94.7555 46.9822 92.3678L56.3572 82.9928C56.9541 82.4163 57.4303 81.7266 57.7578 80.9641C58.0854 80.2016 58.2578 79.3814 58.265 78.5516C58.2722 77.7217 58.1141 76.8987 57.7998 76.1306C57.4856 75.3625 57.0215 74.6647 56.4347 74.0778C55.8478 73.491 55.15 73.0269 54.3819 72.7127C53.6138 72.3984 52.7908 72.2403 51.9609 72.2475C51.1311 72.2547 50.311 72.4271 49.5484 72.7547C48.7859 73.0822 48.0962 73.5584 47.5197 74.1553L38.1447 83.5303C36.9916 84.7242 35.6123 85.6765 34.0873 86.3316C32.5622 86.9867 30.922 87.3315 29.2622 87.3459C27.6025 87.3604 25.9565 87.0441 24.4203 86.4156C22.8841 85.7871 21.4884 84.8589 20.3148 83.6852C19.1411 82.5116 18.2129 81.1159 17.5844 79.5797C16.9559 78.0435 16.6397 76.3975 16.6541 74.7378C16.6685 73.078 17.0133 71.4378 17.6684 69.9127C18.3236 68.3877 19.2758 67.0084 20.4697 65.8553L39.2197 47.1053Z" fill="url(#paint0_linear_266_1930)"/>
</g>
<defs>
<filter id="filter0_d_266_1930" x="0" y="0" width="108" height="108" filterUnits="userSpaceOnUse" color-interpolation-filters="sRGB">
<feFlood flood-opacity="0" result="BackgroundImageFix"/>
<feColorMatrix in="SourceAlpha" type="matrix" values="0 0 0 0 0 0 0 0 0 0 0 0 0 0 0 0 0 0 127 0" result="hardAlpha"/>
<feOffset dy="4"/>
<feGaussianBlur stdDeviation="2"/>
<feComposite in2="hardAlpha" operator="out"/>
<feColorMatrix type="matrix" values="0 0 0 0 0 0 0 0 0 0 0 0 0 0 0 0 0 0 1 0"/>
<feBlend mode="normal" in2="BackgroundImageFix" result="effect1_dropShadow_266_1930"/>
<feBlend mode="normal" in="SourceGraphic" in2="effect1_dropShadow_266_1930" result="shape"/>
</filter>
<linearGradient id="paint0_linear_266_1930" x1="4" y1="50" x2="104" y2="50" gradientUnits="userSpaceOnUse">
<stop stop-color="#8A57DE"/>
<stop offset="1" stop-color="#DEAFBD"/>
</linearGradient>
</defs>
</svg>
