<svg width="108" height="108" viewBox="0 0 108 108" fill="none" xmlns="http://www.w3.org/2000/svg">
<g filter="url(#filter0_d_267_1941)">
<path d="M102.821 7.21591L96.7983 1.19318C96.5847 0.981701 96.2963 0.863069 95.9957 0.863069C95.6952 0.863069 95.4068 0.981701 95.1932 1.19318L5.17898 91.179C4.9675 91.3926 4.84886 91.681 4.84886 91.9815C4.84886 92.2821 4.9675 92.5705 5.17898 92.7841L11.2017 98.8068C11.642 99.2472 12.3665 99.2472 12.8068 98.8068L102.807 8.80682C103.261 8.38068 103.261 7.65625 102.821 7.21591ZM24.4545 40.9091C35.733 40.9091 44.9091 31.733 44.9091 20.4545C44.9091 9.17614 35.733 0 24.4545 0C13.1761 0 4 9.17614 4 20.4545C4 31.733 13.1761 40.9091 24.4545 40.9091ZM24.4545 10.2273C30.0938 10.2273 34.6818 14.8153 34.6818 20.4545C34.6818 26.0938 30.0938 30.6818 24.4545 30.6818C18.8153 30.6818 14.2273 26.0938 14.2273 20.4545C14.2273 14.8153 18.8153 10.2273 24.4545 10.2273ZM83.5455 59.0909C72.267 59.0909 63.0909 68.267 63.0909 79.5455C63.0909 90.8239 72.267 100 83.5455 100C94.8239 100 104 90.8239 104 79.5455C104 68.267 94.8239 59.0909 83.5455 59.0909ZM83.5455 89.7727C77.9062 89.7727 73.3182 85.1847 73.3182 79.5455C73.3182 73.9062 77.9062 69.3182 83.5455 69.3182C89.1847 69.3182 93.7727 73.9062 93.7727 79.5455C93.7727 85.1847 89.1847 89.7727 83.5455 89.7727Z" fill="url(#paint0_linear_267_1941)"/>
</g>
<defs>
<filter id="filter0_d_267_1941" x="0" y="0" width="108" height="108" filterUnits="userSpaceOnUse" color-interpolation-filters="sRGB">
<feFlood flood-opacity="0" result="BackgroundImageFix"/>
<feColorMatrix in="SourceAlpha" type="matrix" values="0 0 0 0 0 0 0 0 0 0 0 0 0 0 0 0 0 0 127 0" result="hardAlpha"/>
<feOffset dy="4"/>
<feGaussianBlur stdDeviation="2"/>
<feComposite in2="hardAlpha" operator="out"/>
<feColorMatrix type="matrix" values="0 0 0 0 0 0 0 0 0 0 0 0 0 0 0 0 0 0 1 0"/>
<feBlend mode="normal" in2="BackgroundImageFix" result="effect1_dropShadow_267_1941"/>
<feBlend mode="normal" in="SourceGraphic" in2="effect1_dropShadow_267_1941" result="shape"/>
</filter>
<linearGradient id="paint0_linear_267_1941" x1="4" y1="50" x2="104" y2="50" gradientUnits="userSpaceOnUse">
<stop stop-color="#8A57DE"/>
<stop offset="1" stop-color="#DEAFBD"/>
</linearGradient>
</defs>
</svg>
