<svg width="1044" height="334" viewBox="0 0 1044 334" fill="none" xmlns="http://www.w3.org/2000/svg">
<path d="M958.5 108.5C958.5 108.5 850.5 284 790 279.5" stroke="url(#paint0_linear_0_1)" stroke-width="5"/>
<path d="M1 295C1 295 127.425 260 213.75 260C300.075 260 426.5 295 426.5 295" stroke="url(#paint1_linear_0_1)" stroke-width="5"/>
<path d="M849 271C849 271 722.575 331 636.25 331C549.925 331 423.5 271 423.5 271" stroke="url(#paint2_linear_0_1)" stroke-width="5"/>
<path d="M986.385 93.0279L993.46 106.177L998.388 98.7799C999.078 97.7435 999.486 96.6997 999.592 95.7261L1000.86 83.5556C1001.13 80.9347 999.152 79.1211 995.793 78.9058L986.388 93.0222L986.385 93.0279Z" fill="url(#paint3_linear_0_1)"/>
<path d="M961.58 76.5024L946.72 75.0383L951.648 67.6413C952.339 66.6049 953.139 65.8228 954.003 65.3538L964.746 59.4959C967.059 58.2332 969.496 59.3635 970.988 62.3804L961.584 76.4968L961.58 76.5024Z" fill="url(#paint4_linear_0_1)"/>
<path style="mix-blend-mode:screen" d="M963.153 113.643C959.018 119.85 945.587 134.359 942.364 132.211C939.141 130.064 947.356 112.081 951.491 105.874C955.129 100.413 958.618 100.829 961.841 102.977C965.064 105.124 966.795 108.177 963.153 113.643Z" fill="url(#paint5_linear_0_1)"/>
<path style="mix-blend-mode:screen" d="M962.895 113.364C958.859 119.423 945.667 133.869 942.62 131.84C939.574 129.81 947.823 112.071 951.86 106.012C955.414 100.677 958.739 101.042 961.786 103.072C964.832 105.101 966.446 108.035 962.895 113.364Z" fill="url(#paint6_linear_0_1)"/>
<path style="mix-blend-mode:screen" d="M962.635 113.076C958.697 118.987 945.75 133.374 942.874 131.458C939.998 129.542 948.284 112.057 952.226 106.141C955.693 100.936 958.857 101.235 961.732 103.151C964.608 105.067 966.102 107.871 962.635 113.076Z" fill="url(#paint7_linear_0_1)"/>
<path style="mix-blend-mode:screen" d="M962.371 112.794C958.532 118.556 945.827 132.875 943.122 131.073C940.418 129.271 948.737 112.031 952.577 106.269C955.957 101.195 958.965 101.431 961.67 103.233C964.374 105.035 965.751 107.72 962.371 112.794Z" fill="url(#paint8_linear_0_1)"/>
<path style="mix-blend-mode:screen" d="M962.113 112.514C958.372 118.129 945.913 132.388 943.379 130.7C940.845 129.012 949.204 112.021 952.945 106.406C956.238 101.464 959.081 101.639 961.615 103.327C964.149 105.016 965.406 107.571 962.113 112.514Z" fill="url(#paint9_linear_0_1)"/>
<path style="mix-blend-mode:screen" d="M961.849 112.232C958.207 117.699 945.986 131.896 943.629 130.325C941.272 128.755 949.666 112.008 953.308 106.542C956.513 101.73 959.2 101.843 961.558 103.414C963.915 104.984 965.055 107.421 961.849 112.232Z" fill="url(#paint10_linear_0_1)"/>
<path style="mix-blend-mode:screen" d="M961.589 111.943C958.042 117.268 946.07 131.4 943.878 129.939C941.685 128.479 950.115 111.987 953.663 106.663C956.785 101.976 959.307 102.028 961.499 103.489C963.691 104.95 964.711 107.257 961.589 111.943Z" fill="url(#paint11_linear_0_1)"/>
<path style="mix-blend-mode:screen" d="M961.331 111.664C957.882 116.841 946.149 130.91 944.133 129.567C942.118 128.224 950.582 111.977 954.031 106.801C957.065 102.245 959.432 102.235 961.448 103.578C963.464 104.921 964.366 107.109 961.331 111.664Z" fill="url(#paint12_linear_0_1)"/>
<path style="mix-blend-mode:screen" d="M961.067 111.382C957.717 116.41 946.223 130.417 944.384 129.192C942.545 127.966 951.043 111.964 954.393 106.936C957.341 102.511 959.542 102.44 961.387 103.669C963.232 104.899 964.015 106.957 961.067 111.382Z" fill="url(#paint13_linear_0_1)"/>
<path style="mix-blend-mode:screen" d="M960.807 111.094C957.556 115.974 946.31 129.916 944.636 128.801C942.962 127.686 951.501 111.932 954.748 107.057C957.608 102.764 959.654 102.63 961.328 103.746C963.002 104.861 963.667 106.8 960.807 111.094Z" fill="url(#paint14_linear_0_1)"/>
<path style="mix-blend-mode:screen" d="M960.549 110.815C957.396 115.547 946.39 129.427 944.892 128.429C943.395 127.431 951.964 111.928 955.116 107.196C957.89 103.033 959.78 102.837 961.277 103.835C962.775 104.833 963.326 106.647 960.549 110.815Z" fill="url(#paint15_linear_0_1)"/>
<path style="mix-blend-mode:screen" d="M960.285 110.531C957.231 115.115 946.47 128.936 945.143 128.052C943.816 127.168 952.425 111.914 955.479 107.33C958.165 103.298 959.89 103.041 961.216 103.925C962.543 104.809 962.971 106.5 960.285 110.531Z" fill="url(#paint16_linear_0_1)"/>
<path d="M968.324 104.575L957.88 97.6172L956.898 99.092C956.898 99.092 956.879 99.1205 956.871 99.1319C955.752 100.812 957.186 103.732 960.067 105.651C962.948 107.571 966.195 107.769 967.314 106.089C967.322 106.078 967.333 106.061 967.341 106.05L968.324 104.575Z" fill="url(#paint17_linear_0_1)"/>
<path d="M984.275 96.3408L959.328 79.7207L954.389 87.1348C954.366 87.1689 954.343 87.2031 954.32 87.2373C951.65 91.2461 955.07 98.2192 961.954 102.806C968.839 107.392 976.591 107.862 979.262 103.854C979.285 103.819 979.307 103.785 979.33 103.751L984.269 96.337L984.275 96.3408Z" fill="url(#paint18_linear_0_1)"/>
<g style="mix-blend-mode:multiply" opacity="0.5">
<path d="M984.101 96.6025L959.154 79.9824L955.216 85.8932C955.216 85.8932 955.182 85.9444 955.163 85.9729C953.031 89.1731 956.891 95.4856 963.775 100.072C970.66 104.659 977.972 105.789 980.104 102.589C980.123 102.561 980.138 102.538 980.157 102.509L984.095 96.5987L984.101 96.6025Z" fill="#C7BCD6"/>
</g>
<path d="M1007.65 76.4906C1015.95 66.7584 1020.67 54.3761 1020.46 41.5836C1020.45 41.0428 1020.44 40.5076 1020.41 39.9744L1019.41 16.5681L997.429 24.6536C996.928 24.8379 996.423 25.0278 995.926 25.231C984.04 29.9658 974.425 39.0912 968.648 50.5021L955.232 77.008L955.238 77.0118C955.207 77.0574 955.171 77.0991 955.145 77.139C951.594 82.4689 956.138 91.7284 965.283 97.821C974.428 103.914 984.724 104.54 988.275 99.2106C988.305 99.165 988.335 99.1194 988.356 99.0758L988.362 99.0796L1007.65 76.4887L1007.65 76.4906Z" fill="url(#paint19_linear_0_1)"/>
<path d="M1020.42 39.9693L1019.42 16.5688L997.429 24.6543C997.305 24.7037 997.186 24.7474 997.062 24.7967C997.312 28.7287 1000.58 33.5309 1005.8 37.0059C1011.02 40.4809 1016.7 41.6462 1020.43 40.3659C1020.43 40.2331 1020.42 40.106 1020.42 39.9731L1020.42 39.9693Z" fill="url(#paint20_linear_0_1)"/>
<path opacity="0.3" d="M1020.42 39.9693L1019.42 16.5688L997.429 24.6543C997.305 24.7037 997.186 24.7474 997.062 24.7967C997.312 28.7287 1000.58 33.5309 1005.8 37.0059C1011.02 40.4809 1016.7 41.6462 1020.43 40.3659C1020.43 40.2331 1020.42 40.106 1020.42 39.9731L1020.42 39.9693Z" fill="url(#paint21_linear_0_1)"/>
<path style="mix-blend-mode:multiply" opacity="0.5" d="M1007.65 76.4906C1015.95 66.7584 1020.67 54.3761 1020.46 41.5836C1020.45 41.0428 1020.44 40.5076 1020.41 39.9744L1019.41 16.5681L997.429 24.6536C996.928 24.8379 996.423 25.0278 995.926 25.231C984.04 29.9658 974.425 39.0912 968.648 50.5021L955.232 77.008L955.238 77.0118C955.207 77.0574 955.171 77.0991 955.145 77.139C951.594 82.4689 956.138 91.7284 965.283 97.821C974.428 103.914 984.724 104.54 988.275 99.2106C988.305 99.165 988.335 99.1194 988.356 99.0758L988.362 99.0796L1007.65 76.4887L1007.65 76.4906Z" fill="url(#paint22_radial_0_1)"/>
<path style="mix-blend-mode:color-dodge" opacity="0.7" d="M1005.02 55.0434C1010.54 39.6132 1013.87 19.8302 1015.98 20.1769C1019.7 20.7792 1021.74 43.5683 1016.22 58.9985C1011.35 72.5802 988.763 99.404 985.249 98.1488C981.736 96.8937 1000.16 68.6288 1005.03 55.0472L1005.02 55.0434Z" fill="url(#paint23_radial_0_1)"/>
<path d="M981.293 68.3479C979.768 70.6371 977.895 71.7326 976.09 71.6649C976.035 71.6611 974.335 71.6218 974.28 71.618C972.445 71.4725 974.429 70.3446 973.18 67.8267C970.668 62.7492 971.159 54.8298 974.285 50.1377C975.829 47.82 973.699 46.3765 975.525 46.4746C975.574 46.4746 977.563 46.6486 977.612 46.6486C979.426 46.8131 981.158 48.1637 982.398 50.6589C984.91 55.7364 984.419 63.6558 981.293 68.3479Z" fill="url(#paint24_linear_0_1)"/>
<path d="M979.258 68.2421C976.136 72.9286 971.562 72.6112 969.05 67.5337C966.538 62.4561 967.029 54.5368 970.155 49.8446C973.281 45.1525 977.851 45.4755 980.363 50.5531C982.875 55.6306 982.384 63.55 979.258 68.2421Z" fill="url(#paint25_linear_0_1)"/>
<path d="M978.398 66.5096C975.864 70.3134 972.152 70.0603 970.107 65.9353C968.062 61.8103 968.466 55.3788 971.004 51.5692C973.542 47.7597 977.25 48.0185 979.291 52.1492C981.337 56.2742 980.932 62.7058 978.398 66.5096Z" fill="url(#paint26_linear_0_1)"/>
<path style="mix-blend-mode:screen" d="M978.418 63.7778C976.51 66.642 973.718 66.4512 972.178 63.3451C970.644 60.2428 970.942 55.4017 972.851 52.5374C974.759 49.6731 977.55 49.8639 979.09 52.97C980.625 56.0723 980.326 60.9135 978.418 63.7778Z" fill="url(#paint27_linear_0_1)"/>
<path d="M971.625 66.223C969.58 62.098 969.984 55.6664 972.518 51.8626C973.687 50.1087 975.102 49.2183 976.499 49.1704C974.679 48.3853 972.61 49.1697 971.009 51.5727C968.475 55.3766 968.071 61.8081 970.113 65.9388C971.214 68.1607 972.801 69.259 974.423 69.2053C973.355 68.7483 972.375 67.7504 971.621 66.2287L971.625 66.223Z" fill="url(#paint28_linear_0_1)"/>
<path style="mix-blend-mode:color-dodge" d="M980.704 50.5096C979.497 48.0771 977.42 46.8006 976.185 46.6188C977.652 47.0946 979.254 48.4662 980.274 50.5268C982.786 55.6043 982.295 63.5237 979.169 68.2158C977.542 70.6587 975.282 71.6444 973.363 71.402C975.244 71.8493 977.739 70.9794 979.594 68.1948C982.716 63.5084 983.207 55.589 980.699 50.5058L980.704 50.5096Z" fill="url(#paint29_radial_0_1)"/>
<path style="mix-blend-mode:color-dodge" d="M989.693 46.0893C1004.23 32.8348 1024.61 19.9979 1023.25 17.8179C1020.86 13.9795 995.413 22.9656 980.871 36.2163C968.074 47.8837 958.764 65.4254 961.786 68.7379C964.803 72.0466 976.89 57.7529 989.693 46.0893Z" fill="url(#paint30_radial_0_1)"/>
<path d="M954.947 86.717L935.079 97.62L934.008 95.4019L938.723 88.3238C939.384 87.333 940.296 86.3705 941.404 85.4972L955.171 74.6569C958.132 72.3218 962.088 70.9618 965.303 71.1714L966.317 73.3269L954.947 86.717Z" fill="url(#paint31_linear_0_1)"/>
<path d="M956.018 88.935L935.079 97.6198L939.795 90.5417C940.455 89.5509 941.371 88.5828 942.471 87.7209L956.238 76.8806C959.2 74.5454 963.156 73.1854 966.371 73.3951L956.014 88.9407L956.018 88.935Z" fill="url(#paint32_linear_0_1)"/>
<path style="mix-blend-mode:color-dodge" d="M939.819 90.8385C940.479 89.8476 941.392 88.8852 942.496 88.0176L956.263 77.1773C959.093 74.9523 962.831 73.6113 965.963 73.6748L966.243 73.2534C963.025 73.0495 959.069 74.4095 956.111 76.7389L942.344 87.5793C941.24 88.4469 940.328 89.4093 939.667 90.4001L934.952 97.4782L935.567 97.2218L939.819 90.8385Z" fill="url(#paint33_radial_0_1)"/>
<path d="M979.506 103.079L977.098 125.614L979.557 125.748L984.273 118.67C984.933 117.679 985.47 116.466 985.849 115.107L990.55 98.2273C991.564 94.5947 991.295 90.4198 989.863 87.5338L987.483 87.4283L979.506 103.079Z" fill="url(#paint34_linear_0_1)"/>
<path d="M977.047 102.945L977.098 125.614L981.813 118.535C982.473 117.545 983.014 116.326 983.385 114.979L988.086 98.0987C989.101 94.4662 988.832 90.2913 987.4 87.4053L977.043 102.951L977.047 102.945Z" fill="url(#paint35_linear_0_1)"/>
<path style="mix-blend-mode:color-dodge" d="M983.619 115.134L988.32 98.254C989.334 94.6215 989.065 90.4465 987.633 87.5605L987.573 87.6517C988.718 90.4865 988.873 94.2895 987.944 97.6336L983.243 114.513C982.867 115.867 982.331 117.079 981.667 118.076L977.323 124.596L977.329 125.784L982.045 118.706C982.705 117.715 983.242 116.502 983.617 115.149L983.619 115.134Z" fill="url(#paint36_radial_0_1)"/>
<defs>
<linearGradient id="paint0_linear_0_1" x1="790" y1="194.043" x2="958.5" y2="194.043" gradientUnits="userSpaceOnUse">
<stop stop-color="#8A57DE"/>
<stop offset="1" stop-color="#DEAFBD"/>
</linearGradient>
<linearGradient id="paint1_linear_0_1" x1="1" y1="277.5" x2="426.5" y2="277.5" gradientUnits="userSpaceOnUse">
<stop stop-color="#8A57DE"/>
<stop offset="1" stop-color="#DEAFBD"/>
</linearGradient>
<linearGradient id="paint2_linear_0_1" x1="849" y1="301" x2="423.5" y2="301" gradientUnits="userSpaceOnUse">
<stop stop-color="#8A57DE"/>
<stop offset="1" stop-color="#DEAFBD"/>
</linearGradient>
<linearGradient id="paint3_linear_0_1" x1="992.766" y1="91.8531" x2="1028.66" y2="102.822" gradientUnits="userSpaceOnUse">
<stop offset="0.04" stop-color="#6B24D6"/>
<stop offset="0.29" stop-color="#7733DC"/>
<stop offset="0.79" stop-color="#965BEC"/>
<stop offset="1" stop-color="#A56EF4"/>
</linearGradient>
<linearGradient id="paint4_linear_0_1" x1="974.449" y1="84.7554" x2="943.95" y2="52.8357" gradientUnits="userSpaceOnUse">
<stop offset="0.04" stop-color="#6B24D6"/>
<stop offset="0.29" stop-color="#7733DC"/>
<stop offset="0.79" stop-color="#965BEC"/>
<stop offset="1" stop-color="#A56EF4"/>
</linearGradient>
<linearGradient id="paint5_linear_0_1" x1="959.312" y1="106.784" x2="945.848" y2="126.993" gradientUnits="userSpaceOnUse">
<stop stop-color="#F8299A"/>
<stop offset="0.1" stop-color="#C8217C"/>
<stop offset="0.23" stop-color="#94185C"/>
<stop offset="0.36" stop-color="#66103F"/>
<stop offset="0.49" stop-color="#410A28"/>
<stop offset="0.62" stop-color="#240616"/>
<stop offset="0.75" stop-color="#10020A"/>
<stop offset="0.88" stop-color="#040002"/>
<stop offset="1"/>
</linearGradient>
<linearGradient id="paint6_linear_0_1" x1="959.297" y1="106.807" x2="946.046" y2="126.697" gradientUnits="userSpaceOnUse">
<stop stop-color="#F93A9B"/>
<stop offset="0.08" stop-color="#D53185"/>
<stop offset="0.22" stop-color="#9D2462"/>
<stop offset="0.36" stop-color="#6D1944"/>
<stop offset="0.49" stop-color="#46102B"/>
<stop offset="0.63" stop-color="#270918"/>
<stop offset="0.76" stop-color="#11040A"/>
<stop offset="0.88" stop-color="#040102"/>
<stop offset="1"/>
</linearGradient>
<linearGradient id="paint7_linear_0_1" x1="959.282" y1="106.83" x2="946.243" y2="126.401" gradientUnits="userSpaceOnUse">
<stop stop-color="#F94B9C"/>
<stop offset="0.05" stop-color="#E4448F"/>
<stop offset="0.2" stop-color="#A83269"/>
<stop offset="0.35" stop-color="#752349"/>
<stop offset="0.49" stop-color="#4B162F"/>
<stop offset="0.63" stop-color="#2A0C1A"/>
<stop offset="0.77" stop-color="#12050B"/>
<stop offset="0.89" stop-color="#040103"/>
<stop offset="1"/>
</linearGradient>
<linearGradient id="paint8_linear_0_1" x1="959.263" y1="106.859" x2="946.436" y2="126.111" gradientUnits="userSpaceOnUse">
<stop stop-color="#FA5C9E"/>
<stop offset="0.01" stop-color="#F55A9B"/>
<stop offset="0.17" stop-color="#B54272"/>
<stop offset="0.33" stop-color="#7E2E4F"/>
<stop offset="0.49" stop-color="#501D33"/>
<stop offset="0.64" stop-color="#2D101C"/>
<stop offset="0.77" stop-color="#14070C"/>
<stop offset="0.9" stop-color="#050103"/>
<stop offset="1"/>
</linearGradient>
<linearGradient id="paint9_linear_0_1" x1="959.247" y1="106.881" x2="946.634" y2="125.814" gradientUnits="userSpaceOnUse">
<stop stop-color="#FB6D9F"/>
<stop offset="0.14" stop-color="#C3547B"/>
<stop offset="0.32" stop-color="#883B56"/>
<stop offset="0.48" stop-color="#572637"/>
<stop offset="0.64" stop-color="#31151F"/>
<stop offset="0.78" stop-color="#16090E"/>
<stop offset="0.9" stop-color="#050203"/>
<stop offset="1"/>
</linearGradient>
<linearGradient id="paint10_linear_0_1" x1="959.229" y1="106.91" x2="946.831" y2="125.519" gradientUnits="userSpaceOnUse">
<stop stop-color="#FB7EA0"/>
<stop offset="0.1" stop-color="#D56A87"/>
<stop offset="0.29" stop-color="#954A5F"/>
<stop offset="0.47" stop-color="#5F303D"/>
<stop offset="0.63" stop-color="#361B22"/>
<stop offset="0.78" stop-color="#180C0F"/>
<stop offset="0.91" stop-color="#060304"/>
<stop offset="1"/>
</linearGradient>
<linearGradient id="paint11_linear_0_1" x1="959.213" y1="106.932" x2="947.028" y2="125.223" gradientUnits="userSpaceOnUse">
<stop stop-color="#FC8FA1"/>
<stop offset="0.05" stop-color="#EA8595"/>
<stop offset="0.25" stop-color="#A45D69"/>
<stop offset="0.45" stop-color="#693C43"/>
<stop offset="0.62" stop-color="#3C2226"/>
<stop offset="0.78" stop-color="#1B0F11"/>
<stop offset="0.91" stop-color="#070404"/>
<stop offset="1"/>
</linearGradient>
<linearGradient id="paint12_linear_0_1" x1="959.194" y1="106.961" x2="947.225" y2="124.926" gradientUnits="userSpaceOnUse">
<stop stop-color="#FCA0A2"/>
<stop offset="0.21" stop-color="#B67375"/>
<stop offset="0.42" stop-color="#764B4C"/>
<stop offset="0.61" stop-color="#432A2B"/>
<stop offset="0.78" stop-color="#1E1313"/>
<stop offset="0.91" stop-color="#080505"/>
<stop offset="1"/>
</linearGradient>
<linearGradient id="paint13_linear_0_1" x1="959.179" y1="106.983" x2="947.423" y2="124.63" gradientUnits="userSpaceOnUse">
<stop stop-color="#FDB1A3"/>
<stop offset="0.14" stop-color="#CE9085"/>
<stop offset="0.38" stop-color="#865D56"/>
<stop offset="0.59" stop-color="#4C3531"/>
<stop offset="0.77" stop-color="#221816"/>
<stop offset="0.91" stop-color="#090606"/>
<stop offset="1"/>
</linearGradient>
<linearGradient id="paint14_linear_0_1" x1="959.16" y1="107.012" x2="947.62" y2="124.335" gradientUnits="userSpaceOnUse">
<stop stop-color="#FEC2A5"/>
<stop offset="0.05" stop-color="#EEB69A"/>
<stop offset="0.32" stop-color="#9A7664"/>
<stop offset="0.56" stop-color="#584339"/>
<stop offset="0.76" stop-color="#281E1A"/>
<stop offset="0.91" stop-color="#0B0807"/>
<stop offset="1"/>
</linearGradient>
<linearGradient id="paint15_linear_0_1" x1="959.145" y1="107.035" x2="947.817" y2="124.039" gradientUnits="userSpaceOnUse">
<stop stop-color="#FED3A6"/>
<stop offset="0.23" stop-color="#B69777"/>
<stop offset="0.51" stop-color="#695744"/>
<stop offset="0.74" stop-color="#30281F"/>
<stop offset="0.91" stop-color="#0D0B08"/>
<stop offset="1"/>
</linearGradient>
<linearGradient id="paint16_linear_0_1" x1="959.126" y1="107.063" x2="948.011" y2="123.747" gradientUnits="userSpaceOnUse">
<stop stop-color="#FFE4A7"/>
<stop offset="0.1" stop-color="#E1C993"/>
<stop offset="0.43" stop-color="#827455"/>
<stop offset="0.71" stop-color="#3B3527"/>
<stop offset="0.9" stop-color="#100E0A"/>
<stop offset="1"/>
</linearGradient>
<linearGradient id="paint17_linear_0_1" x1="956.408" y1="99.9253" x2="966.687" y2="106.773" gradientUnits="userSpaceOnUse">
<stop offset="0.02" stop-color="#45108A"/>
<stop offset="0.29" stop-color="#3D065F"/>
<stop offset="1" stop-color="#10054D"/>
</linearGradient>
<linearGradient id="paint18_linear_0_1" x1="954.527" y1="87.186" x2="979.081" y2="103.544" gradientUnits="userSpaceOnUse">
<stop stop-color="#5C1CCC"/>
<stop offset="0.03" stop-color="#6223CF"/>
<stop offset="0.07" stop-color="#7437D9"/>
<stop offset="0.12" stop-color="#9258E9"/>
<stop offset="0.14" stop-color="#A56EF4"/>
<stop offset="0.23" stop-color="#C994FF"/>
<stop offset="0.28" stop-color="#AE79EF"/>
<stop offset="0.38" stop-color="#7945D1"/>
<stop offset="0.54" stop-color="#4916A1"/>
<stop offset="0.62" stop-color="#4B16A4"/>
<stop offset="0.69" stop-color="#5219AF"/>
<stop offset="0.76" stop-color="#5D1EC0"/>
<stop offset="0.82" stop-color="#6B24D6"/>
<stop offset="0.94" stop-color="#5B1DBC"/>
<stop offset="1" stop-color="#531AB0"/>
</linearGradient>
<linearGradient id="paint19_linear_0_1" x1="972.707" y1="44.1131" x2="1011.73" y2="70.1111" gradientUnits="userSpaceOnUse">
<stop offset="0.01" stop-color="#C1A1D5"/>
<stop offset="0.04" stop-color="#C7ABD9"/>
<stop offset="0.1" stop-color="#D9C6E5"/>
<stop offset="0.18" stop-color="#F6F2F9"/>
<stop offset="0.2" stop-color="white"/>
<stop offset="0.23" stop-color="#F9F5FB"/>
<stop offset="0.29" stop-color="#E9DBF1"/>
<stop offset="0.36" stop-color="#D1B4E3"/>
<stop offset="0.43" stop-color="#B294D5"/>
<stop offset="0.49" stop-color="#9B7CCB"/>
<stop offset="0.56" stop-color="#8D6EC5"/>
<stop offset="0.61" stop-color="#8969C3"/>
<stop offset="0.76" stop-color="#9371C5"/>
<stop offset="1" stop-color="#B086CC"/>
</linearGradient>
<linearGradient id="paint20_linear_0_1" x1="1006.6" y1="19.5845" x2="1021.62" y2="41.6276" gradientUnits="userSpaceOnUse">
<stop stop-color="#5C1CCC"/>
<stop offset="0.04" stop-color="#6223CF"/>
<stop offset="0.09" stop-color="#7437D9"/>
<stop offset="0.16" stop-color="#9258E9"/>
<stop offset="0.19" stop-color="#A56EF4"/>
<stop offset="0.34" stop-color="#7945D1"/>
<stop offset="0.44" stop-color="#6D37C6"/>
<stop offset="0.6" stop-color="#5E26B9"/>
<stop offset="0.77" stop-color="#551DB2"/>
<stop offset="1" stop-color="#531AB0"/>
</linearGradient>
<linearGradient id="paint21_linear_0_1" x1="1023.83" y1="29.5213" x2="988.587" y2="24.8317" gradientUnits="userSpaceOnUse">
<stop stop-color="#5C1CCC"/>
<stop offset="0.04" stop-color="#6223CF"/>
<stop offset="0.09" stop-color="#7437D9"/>
<stop offset="0.16" stop-color="#9258E9"/>
<stop offset="0.19" stop-color="#A56EF4"/>
<stop offset="0.34" stop-color="#7945D1"/>
<stop offset="0.44" stop-color="#6D37C6"/>
<stop offset="0.6" stop-color="#5E26B9"/>
<stop offset="0.77" stop-color="#551DB2"/>
<stop offset="1" stop-color="#531AB0"/>
</linearGradient>
<radialGradient id="paint22_radial_0_1" cx="0" cy="0" r="1" gradientUnits="userSpaceOnUse" gradientTransform="translate(992.347 57.1974) rotate(33.6721) scale(33.2743 53.2389)">
<stop offset="0.53" stop-color="white"/>
<stop offset="0.6" stop-color="#FAFAFC"/>
<stop offset="0.68" stop-color="#EFECF5"/>
<stop offset="0.76" stop-color="#DBD4EA"/>
<stop offset="0.85" stop-color="#C0B4D9"/>
<stop offset="0.95" stop-color="#9D8AC5"/>
<stop offset="1" stop-color="#8770B8"/>
</radialGradient>
<radialGradient id="paint23_radial_0_1" cx="0" cy="0" r="1" gradientUnits="userSpaceOnUse" gradientTransform="translate(978.306 51.0166) rotate(-160.308) scale(9.15129 39.7882)">
<stop stop-color="#972A74"/>
<stop offset="0.02" stop-color="#8C276B"/>
<stop offset="0.11" stop-color="#671C4F"/>
<stop offset="0.21" stop-color="#471336"/>
<stop offset="0.32" stop-color="#2D0C22"/>
<stop offset="0.43" stop-color="#180613"/>
<stop offset="0.57" stop-color="#0A0308"/>
<stop offset="0.73" stop-color="#020001"/>
<stop offset="1"/>
</radialGradient>
<linearGradient id="paint24_linear_0_1" x1="978.603" y1="46.5439" x2="976.969" y2="71.9872" gradientUnits="userSpaceOnUse">
<stop stop-color="#5C1CCC"/>
<stop offset="0.03" stop-color="#6223CF"/>
<stop offset="0.07" stop-color="#7437D9"/>
<stop offset="0.12" stop-color="#9258E9"/>
<stop offset="0.14" stop-color="#A56EF4"/>
<stop offset="0.23" stop-color="#C994FF"/>
<stop offset="0.28" stop-color="#AE79EF"/>
<stop offset="0.38" stop-color="#7945D1"/>
<stop offset="0.54" stop-color="#4916A1"/>
<stop offset="0.62" stop-color="#4B16A4"/>
<stop offset="0.69" stop-color="#5219AF"/>
<stop offset="0.76" stop-color="#5D1EC0"/>
<stop offset="0.82" stop-color="#6B24D6"/>
<stop offset="0.94" stop-color="#5B1DBC"/>
<stop offset="1" stop-color="#531AB0"/>
</linearGradient>
<linearGradient id="paint25_linear_0_1" x1="967.304" y1="54.1116" x2="982.104" y2="63.9713" gradientUnits="userSpaceOnUse">
<stop offset="0.04" stop-color="#A56EF4"/>
<stop offset="0.36" stop-color="#C994FF"/>
<stop offset="0.54" stop-color="#B279F5"/>
<stop offset="0.91" stop-color="#7935DC"/>
<stop offset="1" stop-color="#6B24D6"/>
</linearGradient>
<linearGradient id="paint26_linear_0_1" x1="974.076" y1="68.8508" x2="975.37" y2="48.6814" gradientUnits="userSpaceOnUse">
<stop offset="0.04" stop-color="#138BBD"/>
<stop offset="0.23" stop-color="#169AC6"/>
<stop offset="0.59" stop-color="#1EC2DF"/>
<stop offset="1" stop-color="#2AF6FF"/>
</linearGradient>
<linearGradient id="paint27_linear_0_1" x1="974.644" y1="46.5134" x2="975.913" y2="61.4178" gradientUnits="userSpaceOnUse">
<stop stop-color="white"/>
<stop offset="1"/>
</linearGradient>
<linearGradient id="paint28_linear_0_1" x1="971.706" y1="68.9652" x2="972.99" y2="48.8963" gradientUnits="userSpaceOnUse">
<stop stop-color="#5C1CCC"/>
<stop offset="0.23" stop-color="#BA85FF"/>
<stop offset="0.38" stop-color="#7945D1"/>
<stop offset="0.54" stop-color="#4916A1"/>
<stop offset="0.61" stop-color="#4B16A4"/>
<stop offset="0.68" stop-color="#5219AF"/>
<stop offset="0.74" stop-color="#5D1EC0"/>
<stop offset="0.79" stop-color="#6B24D6"/>
<stop offset="0.93" stop-color="#5B1DBC"/>
<stop offset="1" stop-color="#531AB0"/>
</linearGradient>
<radialGradient id="paint29_radial_0_1" cx="0" cy="0" r="1" gradientUnits="userSpaceOnUse" gradientTransform="translate(976.295 59.806) rotate(33.6721) scale(9.53823)">
<stop stop-color="white"/>
<stop offset="1"/>
</radialGradient>
<radialGradient id="paint30_radial_0_1" cx="0" cy="0" r="1" gradientUnits="userSpaceOnUse" gradientTransform="translate(973.05 20.2318) rotate(47.6521) scale(8.58475 37.325)">
<stop stop-color="#972A74"/>
<stop offset="0.02" stop-color="#8C276B"/>
<stop offset="0.11" stop-color="#671C4F"/>
<stop offset="0.21" stop-color="#471336"/>
<stop offset="0.32" stop-color="#2D0C22"/>
<stop offset="0.43" stop-color="#180613"/>
<stop offset="0.57" stop-color="#0A0308"/>
<stop offset="0.73" stop-color="#020001"/>
<stop offset="1"/>
</radialGradient>
<linearGradient id="paint31_linear_0_1" x1="937.74" y1="94.3285" x2="968.681" y2="69.952" gradientUnits="userSpaceOnUse">
<stop offset="0.2" stop-color="#7734DC"/>
<stop offset="0.39" stop-color="#8C4EE7"/>
<stop offset="0.59" stop-color="#A56EF4"/>
<stop offset="0.67" stop-color="#BA8AFF"/>
<stop offset="0.8" stop-color="#A067F1"/>
<stop offset="1" stop-color="#9155EA"/>
</linearGradient>
<linearGradient id="paint32_linear_0_1" x1="944.529" y1="83.6079" x2="986.445" y2="96.429" gradientUnits="userSpaceOnUse">
<stop offset="0.04" stop-color="#6B24D6"/>
<stop offset="0.29" stop-color="#7733DC"/>
<stop offset="0.79" stop-color="#965BEC"/>
<stop offset="1" stop-color="#A56EF4"/>
</linearGradient>
<radialGradient id="paint33_radial_0_1" cx="0" cy="0" r="1" gradientUnits="userSpaceOnUse" gradientTransform="translate(959.085 86.453) rotate(33.6721) scale(14.0063)">
<stop stop-color="white"/>
<stop offset="1"/>
</radialGradient>
<linearGradient id="paint34_linear_0_1" x1="982.539" y1="109.943" x2="987.932" y2="89.8155" gradientUnits="userSpaceOnUse">
<stop offset="0.04" stop-color="#6B24D6"/>
<stop offset="0.19" stop-color="#7633DB"/>
<stop offset="0.2" stop-color="#7734DC"/>
<stop offset="0.39" stop-color="#8C4EE7"/>
<stop offset="0.59" stop-color="#A56EF4"/>
<stop offset="0.67" stop-color="#BA8AFF"/>
<stop offset="0.8" stop-color="#A067F1"/>
<stop offset="1" stop-color="#9155EA"/>
</linearGradient>
<linearGradient id="paint35_linear_0_1" x1="1004.95" y1="130.267" x2="958.545" y2="81.6984" gradientUnits="userSpaceOnUse">
<stop offset="0.04" stop-color="#6B24D6"/>
<stop offset="0.29" stop-color="#7733DC"/>
<stop offset="0.79" stop-color="#965BEC"/>
<stop offset="1" stop-color="#A56EF4"/>
</linearGradient>
<radialGradient id="paint36_radial_0_1" cx="0" cy="0" r="1" gradientUnits="userSpaceOnUse" gradientTransform="translate(980.192 98.5697) rotate(33.6721) scale(13.9926)">
<stop stop-color="white"/>
<stop offset="1"/>
</radialGradient>
</defs>
</svg>
