<svg width="17" height="18" viewBox="0 0 17 18" fill="none" xmlns="http://www.w3.org/2000/svg">
<path fill-rule="evenodd" clip-rule="evenodd" d="M15.3 3.25407C16.3929 3.84039 17 5.01303 17 6.18567V11.8143C17 12.987 16.3929 14.1596 15.3 14.7459L10.3214 17.5603C9.22857 18.1466 7.89286 18.1466 6.8 17.5603L1.82143 14.7459C0.607143 14.1596 0 12.987 0 11.8143V6.18567C0 5.01303 0.728571 3.84039 1.7 3.25407L6.67857 0.439739C7.77143 -0.14658 9.10714 -0.14658 10.2 0.439739L15.3 3.25407ZM7.28571 1.49511L2.42857 4.30945C1.7 4.66124 1.21429 5.48208 1.21429 6.18567V11.6971C1.21429 12.5179 1.7 13.3388 2.42857 13.6906L7.28571 16.5049C8.01429 16.8567 8.86429 16.8567 9.59286 16.5049L14.5714 13.6906C15.3 13.3388 15.7857 12.5179 15.7857 11.6971V6.18567C15.7857 5.48208 15.3 4.66124 14.5714 4.30945L9.71429 1.49511C8.98571 1.14332 8.01429 1.14332 7.28571 1.49511ZM9.71429 2.90228L13.3571 4.89577C14.0857 5.36482 14.5714 6.18567 14.5714 7.00651V10.8762C14.5714 11.8143 14.0857 12.5179 13.3571 12.987L9.71429 15.0977C8.98571 15.5668 8.01429 15.5668 7.16429 15.0977L3.64286 13.1042C2.91429 12.6352 2.42857 11.8143 2.42857 10.9935V7.00651C2.42857 6.18567 2.91429 5.36482 3.64286 4.89577L7.28571 2.90228C8.01429 2.55049 8.98571 2.55049 9.71429 2.90228ZM6.07143 11.3453H10.9286V6.65472H6.07143V11.3453Z" fill="url(#paint0_linear_28_14609)"/>
<defs>
<linearGradient id="paint0_linear_28_14609" x1="0" y1="9" x2="17" y2="9" gradientUnits="userSpaceOnUse">
<stop stop-color="#8A57DE"/>
<stop offset="1" stop-color="#DEAFBD"/>
</linearGradient>
</defs>
</svg>
