<svg width="15" height="16" viewBox="0 0 15 16" fill="none" xmlns="http://www.w3.org/2000/svg">
<path fill-rule="evenodd" clip-rule="evenodd" d="M13.5 2.89251C14.4643 3.41368 15 4.45603 15 5.49837V10.5016C15 11.544 14.4643 12.5863 13.5 13.1075L9.10714 15.6091C8.14286 16.1303 6.96429 16.1303 6 15.6091L1.60714 13.1075C0.535714 12.5863 0 11.544 0 10.5016V5.49837C0 4.45603 0.642857 3.41368 1.5 2.89251L5.89286 0.390879C6.85714 -0.130293 8.03571 -0.130293 9 0.390879L13.5 2.89251ZM6.42857 1.32899L2.14286 3.83062C1.5 4.14332 1.07143 4.87296 1.07143 5.49837V10.3974C1.07143 11.127 1.5 11.8567 2.14286 12.1694L6.42857 14.671C7.07143 14.9837 7.82143 14.9837 8.46428 14.671L12.8571 12.1694C13.5 11.8567 13.9286 11.127 13.9286 10.3974V5.49837C13.9286 4.87296 13.5 4.14332 12.8571 3.83062L8.57143 1.32899C7.92857 1.01629 7.07143 1.01629 6.42857 1.32899ZM8.57143 2.5798L11.7857 4.35179C12.4286 4.76873 12.8571 5.49837 12.8571 6.22801V9.66775C12.8571 10.5016 12.4286 11.127 11.7857 11.544L8.57143 13.4202C7.92857 13.8371 7.07143 13.8371 6.32143 13.4202L3.21429 11.6482C2.57143 11.2313 2.14286 10.5016 2.14286 9.77199V6.22801C2.14286 5.49837 2.57143 4.76873 3.21429 4.35179L6.42857 2.5798C7.07143 2.2671 7.92857 2.2671 8.57143 2.5798ZM5.35714 10.0847H9.64286V5.91531H5.35714V10.0847Z" fill="#848386"/>
</svg>
