<svg width="79" height="82" viewBox="0 0 79 82" fill="none" xmlns="http://www.w3.org/2000/svg">
<path fill-rule="evenodd" clip-rule="evenodd" d="M71.1 14.8241C76.1786 17.4951 79 22.8371 79 28.1792V53.8208C79 59.1629 76.1786 64.5049 71.1 67.1759L47.9643 79.9967C42.8857 82.6678 36.6786 82.6678 31.6 79.9967L8.46429 67.1759C2.82143 64.5049 0 59.1629 0 53.8208V28.1792C0 22.8371 3.38571 17.4951 7.9 14.8241L31.0357 2.00326C36.1143 -0.667752 42.3214 -0.667752 47.4 2.00326L71.1 14.8241ZM33.8571 6.81107L11.2857 19.6319C7.9 21.2345 5.64286 24.9739 5.64286 28.1792V53.2866C5.64286 57.0261 7.9 60.7655 11.2857 62.3681L33.8571 75.1889C37.2429 76.7915 41.1929 76.7915 44.5786 75.1889L67.7143 62.3681C71.1 60.7655 73.3571 57.0261 73.3571 53.2866V28.1792C73.3571 24.9739 71.1 21.2345 67.7143 19.6319L45.1429 6.81107C41.7571 5.20847 37.2429 5.20847 33.8571 6.81107ZM45.1429 13.2215L62.0714 22.3029C65.4571 24.4397 67.7143 28.1792 67.7143 31.9186V49.5472C67.7143 53.8208 65.4571 57.0261 62.0714 59.1629L45.1429 68.7785C41.7571 70.9153 37.2429 70.9153 33.2929 68.7785L16.9286 59.6971C13.5429 57.5603 11.2857 53.8208 11.2857 50.0814V31.9186C11.2857 28.1792 13.5429 24.4397 16.9286 22.3029L33.8571 13.2215C37.2429 11.6189 41.7571 11.6189 45.1429 13.2215ZM28.2143 51.684H50.7857V30.316H28.2143V51.684Z" fill="#848386"/>
</svg>
