<svg width="30" height="30" viewBox="0 0 30 30" fill="none" xmlns="http://www.w3.org/2000/svg">
<circle cx="15" cy="15" r="15" fill="#8A57DE"/>
<circle cx="15" cy="15" r="13.4694" stroke="white" stroke-width="3.06122" stroke-dasharray="6.43 6.43"/>
<path d="M14.0212 4.92497C12.0579 5.12252 10.1619 5.90093 8.64885 7.12186C8.1353 7.53674 7.3057 8.39021 6.92657 8.89191C5.86793 10.3025 5.21213 11.9183 4.94742 13.7517C4.87258 14.2889 4.88433 15.8139 4.97133 16.3789C5.24779 18.1766 5.87597 19.6899 6.94245 21.1162C7.30591 21.6062 8.38043 22.6809 8.87027 23.0444C10.6004 24.3365 12.5204 25.0199 14.6535 25.0949C16.9644 25.1819 19.2081 24.4707 21.1043 23.0484C21.5863 22.6887 22.4514 21.8472 22.8425 21.3612C24.3042 19.5437 25.0981 17.2957 25.102 14.9763C25.102 12.7085 24.2805 10.397 22.8307 8.61518C22.4436 8.13721 21.5746 7.29548 21.1045 6.94391C19.714 5.90093 18.1537 5.24892 16.4117 4.98024C15.9175 4.90518 14.5269 4.8695 14.0212 4.92497ZM15.8383 5.59266C17.6594 5.75865 19.4845 6.49356 20.9145 7.63923C22.625 9.01419 23.8061 10.9424 24.2564 13.0956C24.4895 14.2256 24.4895 15.7665 24.2564 16.8965C23.8298 18.9391 22.6959 20.8554 21.1357 22.1712C19.7334 23.3525 18.0822 24.0874 16.194 24.3639C15.7278 24.4351 14.2505 24.4351 13.7843 24.3639C11.6116 24.0439 9.81037 23.1589 8.32518 21.6773C6.12481 19.4924 5.14513 16.3356 5.70609 13.2774C6.16439 10.816 7.5865 8.62302 9.65636 7.20476C11.0034 6.27622 12.5282 5.74277 14.2781 5.57699C14.5981 5.54915 15.4355 5.55699 15.8383 5.59266Z" fill="white"/>
<path d="M14.8665 8.20816C14.831 8.2358 14.6927 8.46509 14.5585 8.71398C13.4524 10.741 11.2797 13.1748 9.28876 14.605C8.95684 14.8421 8.92529 14.8737 8.92529 14.9962C8.92529 15.1186 8.95684 15.1502 9.28876 15.3873C10.6199 16.3435 12.2356 17.9515 13.3495 19.4213C13.7604 19.9665 14.2896 20.7764 14.5859 21.3258C14.736 21.6023 14.8663 21.7998 14.9137 21.8118C15.052 21.8592 15.1466 21.7881 15.2652 21.5551C15.5732 20.9466 16.1342 20.0735 16.6912 19.3425C17.7775 17.9123 19.3734 16.3359 20.6889 15.3875C21.0208 15.1504 21.0524 15.1188 21.0524 14.9964C21.0524 14.8739 21.0208 14.8423 20.6889 14.6052C19.3775 13.661 17.7855 12.0883 16.6912 10.6502C16.2449 10.0654 15.7313 9.2831 15.4311 8.73398C15.3006 8.49293 15.1664 8.26776 15.131 8.22816C15.0561 8.14878 14.9493 8.14094 14.8665 8.20816Z" fill="white"/>
</svg>
