<svg width="21" height="21" viewBox="0 0 21 21" fill="none" xmlns="http://www.w3.org/2000/svg">
<path d="M10.5 19.6875C8.06332 19.6875 5.72645 18.7195 4.00346 16.9965C2.28047 15.2736 1.3125 12.9367 1.3125 10.5C1.3125 8.06332 2.28047 5.72645 4.00346 4.00346C5.72645 2.28047 8.06332 1.3125 10.5 1.3125C12.9367 1.3125 15.2736 2.28047 16.9965 4.00346C18.7195 5.72645 19.6875 8.06332 19.6875 10.5C19.6875 12.9367 18.7195 15.2736 16.9965 16.9965C15.2736 18.7195 12.9367 19.6875 10.5 19.6875ZM10.5 21C13.2848 21 15.9555 19.8938 17.9246 17.9246C19.8938 15.9555 21 13.2848 21 10.5C21 7.71523 19.8938 5.04451 17.9246 3.07538C15.9555 1.10625 13.2848 0 10.5 0C7.71523 0 5.04451 1.10625 3.07538 3.07538C1.10625 5.04451 0 7.71523 0 10.5C0 13.2848 1.10625 15.9555 3.07538 17.9246C5.04451 19.8938 7.71523 21 10.5 21Z" fill="#848386"/>
<path d="M10.5 5.25C10.674 5.25 10.841 5.31914 10.964 5.44221C11.0871 5.56528 11.1562 5.7322 11.1562 5.90625V9.84375H15.0938C15.2678 9.84375 15.4347 9.91289 15.5578 10.036C15.6809 10.159 15.75 10.326 15.75 10.5C15.75 10.674 15.6809 10.841 15.5578 10.964C15.4347 11.0871 15.2678 11.1562 15.0938 11.1562H11.1562V15.0938C11.1562 15.2678 11.0871 15.4347 10.964 15.5578C10.841 15.6809 10.674 15.75 10.5 15.75C10.326 15.75 10.159 15.6809 10.036 15.5578C9.91289 15.4347 9.84375 15.2678 9.84375 15.0938V11.1562H5.90625C5.7322 11.1562 5.56528 11.0871 5.44221 10.964C5.31914 10.841 5.25 10.674 5.25 10.5C5.25 10.326 5.31914 10.159 5.44221 10.036C5.56528 9.91289 5.7322 9.84375 5.90625 9.84375H9.84375V5.90625C9.84375 5.7322 9.91289 5.56528 10.036 5.44221C10.159 5.31914 10.326 5.25 10.5 5.25Z" fill="#848386"/>
</svg>
