<svg width="23" height="25" viewBox="0 0 23 25" fill="inherit" xmlns="http://www.w3.org/2000/svg">
<path d="M17.1752 17.3968L17.647 16.8138C17.4748 16.6744 17.2498 16.6183 17.0323 16.6605C16.8149 16.7027 16.6272 16.8389 16.5196 17.0325L17.1752 17.3968ZM22 23.5L21.6711 24.174C21.9703 24.32 22.3299 24.2513 22.5542 24.0053C22.7785 23.7593 22.8138 23.3948 22.6408 23.1104L22 23.5ZM16.2645 19.0356L15.6089 18.6713C15.457 18.9447 15.4907 19.2836 15.6934 19.5218L16.2645 19.0356ZM5.87306 17.1896L6.53884 16.8443C6.43198 16.6383 6.23579 16.4933 6.00747 16.4517C5.77916 16.4102 5.54445 16.4766 5.37182 16.6317L5.87306 17.1896ZM1 23.3619L0.303991 23.0825C0.183248 23.3832 0.26936 23.7275 0.517479 23.936C0.765597 24.1446 1.11958 24.1701 1.39507 23.9994L1 23.3619ZM6.68725 18.7594L7.27167 19.2294C7.45799 18.9978 7.4899 18.6779 7.35302 18.414L6.68725 18.7594ZM1.48677 0.429428C1.17165 0.160591 0.698265 0.198109 0.429428 0.513228C0.160591 0.828346 0.198109 1.30174 0.513228 1.57057L1.48677 0.429428ZM4.04137 4.58054C4.35649 4.84937 4.82988 4.81186 5.09872 4.49674C5.36755 4.18162 5.33004 3.70823 5.01492 3.43939L4.04137 4.58054ZM3.94917 3.40718L3.45108 2.84646C3.42154 2.8727 3.39412 2.90123 3.36908 2.93179L3.94917 3.40718ZM6.4194 2.21606C6.72907 1.94097 6.75712 1.46693 6.48203 1.15725C6.20695 0.847572 5.7329 0.819529 5.42322 1.09461L6.4194 2.21606ZM1.68642 4.98502C1.42387 5.3054 1.47075 5.77795 1.79112 6.0405C2.1115 6.30306 2.58405 6.25618 2.8466 5.93581L1.68642 4.98502ZM22.4942 1.56411C22.8058 1.29114 22.8371 0.8173 22.5641 0.505751C22.2911 0.194203 21.8173 0.162926 21.5058 0.435892L22.4942 1.56411ZM18.056 3.45841C17.7445 3.73138 17.7132 4.20522 17.9862 4.51677C18.2591 4.82832 18.733 4.8596 19.0445 4.58663L18.056 3.45841ZM19.1292 3.41974L19.7093 2.94435C19.6846 2.91413 19.6575 2.8859 19.6283 2.8599L19.1292 3.41974ZM20.2318 5.94836C20.4944 6.26874 20.9669 6.31561 21.2873 6.05306C21.6077 5.79051 21.6545 5.31796 21.392 4.99758L20.2318 5.94836ZM17.6562 1.10178C17.347 0.826144 16.8729 0.853345 16.5973 1.16253C16.3216 1.47172 16.3488 1.94582 16.658 2.22145L17.6562 1.10178ZM10.5829 2.23755L10.2188 1.58188L10.2188 1.5819L10.5829 2.23755ZM11.5 2V1.25V2ZM12.4171 2.23755L12.7812 1.5819L12.7812 1.58188L12.4171 2.23755ZM19.5146 6.17966L19.8791 5.52419L19.8787 5.52401L19.5146 6.17966ZM20 7.00511L19.25 7.00508V7.00511H20ZM20 14.7826L20.75 14.7828V14.7826H20ZM19.0282 16.4335L18.664 15.7778L18.6639 15.7779L19.0282 16.4335ZM12.4171 20.1074L12.7812 20.7631L12.7814 20.763L12.4171 20.1074ZM10.5829 20.1074L10.2186 20.763L10.2188 20.7631L10.5829 20.1074ZM3.97183 16.4335L4.33614 15.7779L4.33596 15.7778L3.97183 16.4335ZM3 14.7836H2.25L2.25 14.7841L3 14.7836ZM3 7.00511H3.75V7.00508L3 7.00511ZM3.48544 6.17966L3.12128 5.52401L3.12094 5.5242L3.48544 6.17966ZM6.88579 8.15526C6.5237 8.35642 6.39324 8.81302 6.5944 9.17511C6.79556 9.53719 7.25217 9.66765 7.61425 9.46649L6.88579 8.15526ZM16.1143 4.74427C16.4763 4.54311 16.6068 4.08651 16.4056 3.72442C16.2045 3.36233 15.7479 3.23187 15.3858 3.43303L16.1143 4.74427ZM6.19848 10.8266C5.83666 10.625 5.37988 10.7548 5.17823 11.1166C4.97658 11.4785 5.10642 11.9352 5.46823 12.1369L6.19848 10.8266ZM8.30157 13.716C8.66338 13.9176 9.12016 13.7878 9.32181 13.426C9.52346 13.0642 9.39362 12.6074 9.03181 12.4058L8.30157 13.716ZM16.7034 17.9798C18.9138 19.7684 20.0999 21.8185 21.3592 23.8896L22.6408 23.1104C21.4033 21.075 20.0926 18.7927 17.647 16.8138L16.7034 17.9798ZM22.3289 22.826C20.2392 21.8062 18.3695 20.3515 16.8356 18.5495L15.6934 19.5218C17.359 21.4786 19.3928 23.0623 21.6711 24.174L22.3289 22.826ZM16.9201 19.3999L17.8308 17.7611L16.5196 17.0325L15.6089 18.6713L16.9201 19.3999ZM5.37182 16.6317C2.96698 18.7923 1.18237 20.8944 0.303991 23.0825L1.69601 23.6413C2.44601 21.7731 4.0267 19.8567 6.3743 17.7475L5.37182 16.6317ZM1.39507 23.9994C3.40985 22.7508 5.31632 21.6605 7.27167 19.2294L6.10283 18.2893C4.33101 20.4922 2.64299 21.4613 0.604927 22.7244L1.39507 23.9994ZM7.35302 18.414L6.53884 16.8443L5.20729 17.5349L6.02147 19.1047L7.35302 18.414ZM0.513228 1.57057L4.04137 4.58054L5.01492 3.43939L1.48677 0.429428L0.513228 1.57057ZM4.44725 3.9679L6.4194 2.21606L5.42322 1.09461L3.45108 2.84646L4.44725 3.9679ZM2.8466 5.93581L4.52926 3.88257L3.36908 2.93179L1.68642 4.98502L2.8466 5.93581ZM21.5058 0.435892L18.056 3.45841L19.0445 4.58663L22.4942 1.56411L21.5058 0.435892ZM18.5491 3.89513L20.2318 5.94836L21.392 4.99758L19.7093 2.94435L18.5491 3.89513ZM16.658 2.22145L18.6302 3.97957L19.6283 2.8599L17.6562 1.10178L16.658 2.22145ZM10.9471 2.89323C11.1162 2.79929 11.3065 2.75 11.5 2.75V1.25C11.0517 1.25 10.6108 1.36422 10.2188 1.58188L10.9471 2.89323ZM11.5 2.75C11.6935 2.75 11.8838 2.79929 12.0529 2.89323L12.7812 1.58188C12.3892 1.36422 11.9483 1.25 11.5 1.25V2.75ZM12.0529 2.89321L19.1504 6.83532L19.8787 5.52401L12.7812 1.5819L12.0529 2.89321ZM19.1501 6.83513C19.1803 6.85198 19.2056 6.87662 19.2232 6.9065L20.5161 6.1461C20.363 5.88572 20.1431 5.671 19.8791 5.5242L19.1501 6.83513ZM19.2232 6.9065C19.2407 6.93638 19.25 6.97042 19.25 7.00508L20.75 7.00514C20.75 6.70306 20.6693 6.40648 20.5161 6.1461L19.2232 6.9065ZM19.25 7.00511V14.7826H20.75V7.00511H19.25ZM19.25 14.7824C19.25 14.9855 19.1956 15.1849 19.0926 15.3599L20.3852 16.1209C20.6239 15.7153 20.7499 15.2534 20.75 14.7828L19.25 14.7824ZM19.0926 15.3599C18.9895 15.5349 18.8416 15.6792 18.664 15.7778L19.3923 17.0892C19.8037 16.8607 20.1465 16.5264 20.3852 16.1209L19.0926 15.3599ZM18.6639 15.7779L12.0527 19.4518L12.7814 20.763L19.3925 17.0891L18.6639 15.7779ZM12.0529 19.4517C11.8838 19.5456 11.6935 19.5949 11.5 19.5949V21.0949C11.9483 21.0949 12.3892 20.9807 12.7812 20.7631L12.0529 19.4517ZM11.5 19.5949C11.3065 19.5949 11.1162 19.5456 10.9471 19.4517L10.2188 20.7631C10.6108 20.9807 11.0517 21.0949 11.5 21.0949V19.5949ZM10.9473 19.4518L4.33614 15.7779L3.60752 17.0891L10.2186 20.763L10.9473 19.4518ZM4.33596 15.7778C4.15849 15.6793 4.01059 15.5351 3.90757 15.3602L2.61511 16.1214C2.85382 16.5267 3.19651 16.8608 3.60771 17.0892L4.33596 15.7778ZM3.90757 15.3602C3.80455 15.1853 3.75015 14.986 3.75 14.783L2.25 14.7841C2.25035 15.2545 2.3764 15.7162 2.61511 16.1214L3.90757 15.3602ZM3.75 14.7836V7.00511H2.25V14.7836H3.75ZM3.75 7.00508C3.75 6.97041 3.75926 6.93638 3.77684 6.9065L2.48386 6.1461C2.33073 6.40648 2.24999 6.70307 2.25 7.00514L3.75 7.00508ZM3.77684 6.9065C3.79441 6.87662 3.81965 6.85198 3.84994 6.83513L3.12094 5.5242C2.85694 5.671 2.63699 5.88572 2.48386 6.1461L3.77684 6.9065ZM3.84961 6.83532L10.9471 2.89321L10.2188 1.5819L3.12128 5.52401L3.84961 6.83532ZM2.63577 7.10539L11.1358 11.8276L11.8642 10.5164L3.36423 5.79415L2.63577 7.10539ZM11.8642 11.8276L20.3642 7.10539L19.6358 5.79415L11.1358 10.5164L11.8642 11.8276ZM10.75 11.172V20.6164H12.25V11.172H10.75ZM7.61425 9.46649L16.1143 4.74427L15.3858 3.43303L6.88579 8.15526L7.61425 9.46649ZM5.46823 12.1369L8.30157 13.716L9.03181 12.4058L6.19848 10.8266L5.46823 12.1369Z" fill="inherit"/>
</svg>
