<svg width="19" height="21" viewBox="0 0 19 21" fill="none" xmlns="http://www.w3.org/2000/svg">
<path d="M8.58294 1.24245C8.86349 1.08344 9.1791 1 9.5 1C9.8209 1 10.1365 1.08344 10.4171 1.24245L17.5146 5.26578C17.6617 5.34929 17.7843 5.47144 17.8697 5.61956C17.955 5.76768 18 5.93639 18 6.10823V14.046C17.9999 14.3897 17.9098 14.7272 17.7389 15.0235C17.568 15.3197 17.3226 15.564 17.0282 15.7309L10.4171 19.4805C10.1365 19.6395 9.8209 19.7229 9.5 19.7229C9.1791 19.7229 8.86349 19.6395 8.58294 19.4805L1.97183 15.7309C1.6775 15.5641 1.43221 15.32 1.26134 15.0239C1.09048 14.7278 1.00025 14.3905 1 14.0469V6.10823C0.999993 5.93639 1.045 5.76768 1.13035 5.61956C1.2157 5.47144 1.3383 5.34929 1.48544 5.26578L8.58389 1.24245H8.58294Z" stroke="inherit" stroke-width="1.5" stroke-linecap="round" stroke-linejoin="round"/>
<path d="M9.5 10.361V20.0001M1 5.5415L9.5 10.361L1 5.5415ZM9.5 10.361L18 5.5415L9.5 10.361Z" stroke="inherit" stroke-width="1.5" stroke-linejoin="round"/>
<path d="M3.83334 10.6771L6.66668 12.2888M5.25001 7.95123L13.75 3.13171L5.25001 7.95123Z" stroke="inherit" stroke-width="1.5" stroke-linecap="round" stroke-linejoin="round"/>
</svg>
