<svg width="17" height="20" viewBox="0 0 17 20" fill="inherit" xmlns="http://www.w3.org/2000/svg">
<path d="M10.7174 0H6.28261C2.7625 0 0 4.38889 0 10C0 15.6111 2.7625 20 6.28261 20H10.7174C14.2375 20 17 15.6111 17 10C17 4.38889 14.2375 0 10.7174 0ZM12.0386 14.0741C12.2974 13.1047 12.4614 12.1123 12.5283 11.1111H14.7364C14.664 12.1189 14.4685 13.114 14.1543 14.0741H12.0386ZM12.5283 8.88889C12.4614 7.88765 12.2974 6.89532 12.0386 5.92593H14.1543C14.4685 6.88603 14.664 7.88111 14.7364 8.88889H12.5283ZM13.0457 3.7037H11.1978C10.9367 3.18207 10.6273 2.68608 10.2739 2.22222H10.7174C11.2163 2.22222 12.131 2.42593 13.0457 3.7037ZM3.58478 15.7222C2.69783 14.213 2.21739 12.1852 2.21739 10C2.21739 7.81482 2.69783 5.78704 3.58478 4.27778C4.61957 2.49074 5.71902 2.22222 6.28261 2.22222C6.8462 2.22222 7.94565 2.49074 8.98043 4.27778C9.15893 4.58606 9.31934 4.9045 9.46087 5.23148C9.46044 5.2365 9.46105 5.24155 9.46263 5.24632C9.46422 5.2511 9.46677 5.2555 9.47011 5.25926C10.0429 6.62037 10.3478 8.25926 10.3478 10C10.3478 11.7407 10.0429 13.3796 9.47011 14.7407C9.46677 14.7445 9.46422 14.7489 9.46263 14.7537C9.46105 14.7585 9.46044 14.7635 9.46087 14.7685C9.31934 15.0955 9.15893 15.4139 8.98043 15.7222C7.94565 17.5093 6.8462 17.7778 6.28261 17.7778C5.71902 17.7778 4.61957 17.5093 3.58478 15.7222ZM10.7174 17.7778H10.2739C10.6273 17.3139 10.9367 16.8179 11.1978 16.2963H13.0457C12.131 17.5741 11.2163 17.7778 10.7174 17.7778Z" fill="inherit"/>
</svg>