<svg width="20" height="20" viewBox="0 0 20 20" fill="none" xmlns="http://www.w3.org/2000/svg">
<path d="M18.9052 1.24389C18.8978 1.20835 18.8805 1.17565 18.8552 1.14964C18.8299 1.12363 18.7977 1.1054 18.7624 1.09708C16.4093 0.521109 10.9737 2.57338 8.02569 5.52165C7.50029 6.04317 7.02121 6.60943 6.59387 7.21405C5.6852 7.13177 4.77652 7.20106 4.00284 7.53884C1.81812 8.50024 1.18247 11.0111 1.00507 12.089C0.995453 12.1481 0.999559 12.2086 1.01706 12.2658C1.03457 12.323 1.065 12.3754 1.10601 12.419C1.14701 12.4625 1.19749 12.496 1.25352 12.5169C1.30955 12.5378 1.36964 12.5455 1.42912 12.5394L4.93705 12.154C4.93948 12.4188 4.95536 12.6833 4.98465 12.9465C5.00296 13.1284 5.08405 13.2982 5.21398 13.4267L6.57224 14.7861C6.70077 14.9162 6.87063 14.9974 7.05254 15.0156C7.31393 15.0448 7.57663 15.0607 7.83963 15.0633L7.45496 18.571C7.44895 18.6305 7.45669 18.6905 7.47756 18.7465C7.49844 18.8025 7.53189 18.8529 7.57535 18.8939C7.6188 18.9349 7.67109 18.9653 7.72817 18.9829C7.78525 19.0004 7.84559 19.0045 7.90454 18.995C8.98197 18.8218 11.496 18.1856 12.451 15.9995C12.7885 15.2244 12.8577 14.3197 12.7798 13.4146C13.3857 12.9873 13.9531 12.5078 14.4756 11.9816C17.4344 9.0368 19.472 3.71622 18.9052 1.24389ZM11.8456 8.16678C11.5872 7.90819 11.4112 7.5787 11.3398 7.21998C11.2685 6.86127 11.3051 6.48944 11.4449 6.15153C11.5847 5.81361 11.8215 5.52479 12.1254 5.32158C12.4293 5.11837 12.7865 5.00991 13.1519 5.00991C13.5174 5.00991 13.8746 5.11837 14.1785 5.32158C14.4823 5.52479 14.7192 5.81361 14.859 6.15153C14.9988 6.48944 15.0354 6.86127 14.9641 7.21998C14.8927 7.5787 14.7167 7.90819 14.4583 8.16678C14.2869 8.33871 14.0832 8.4751 13.8591 8.56817C13.6349 8.66123 13.3946 8.70914 13.1519 8.70914C12.9093 8.70914 12.669 8.66123 12.4448 8.56817C12.2206 8.4751 12.017 8.33871 11.8456 8.16678V8.16678Z" stroke="inherit" stroke-width="1.38579" stroke-linecap="round" stroke-linejoin="round"/>
<path d="M3.66664 14.1573C3.23528 14.2103 2.83398 14.406 2.52646 14.7133C1.76403 15.479 1.69177 18.3147 1.69177 18.3147C1.69177 18.3147 4.52685 18.2423 5.28971 17.4784C5.59804 17.1711 5.79393 16.7688 5.84573 16.3364" stroke="inherit" stroke-width="1.38579" stroke-linecap="round" stroke-linejoin="round"/>
</svg>
