<svg width="19" height="19" viewBox="0 0 19 19" fill="inherit" xmlns="http://www.w3.org/2000/svg">
<path d="M18.05 0C16.72 0 15.5952 1.16706 15.4783 1.29307L14.4467 2.37913L13.4102 1.29107C13.322 1.19833 13.2173 1.1248 13.1021 1.07466C12.9869 1.02452 12.8635 0.998759 12.7388 0.998852C12.6142 0.998945 12.4908 1.02489 12.3756 1.0752C12.2605 1.12551 12.1559 1.1992 12.0679 1.29207L10.887 2.53613C9.98827 2.17945 9.03548 1.99749 8.075 1.99911C3.62235 1.99911 0 5.81231 0 10.4996C0 15.1868 3.62235 19 8.075 19C12.5276 19 16.15 15.1868 16.15 10.4996C16.15 9.5905 16.0132 8.69946 15.7434 7.84141L17.0211 6.49634C17.1989 6.30837 17.2987 6.05386 17.2985 5.7886C17.2983 5.52334 17.1982 5.26897 17.0202 5.08127L15.7918 3.7912L16.8255 2.70314C17.043 2.47413 17.6282 2.00011 18.05 2.00011H19V0H18.05ZM13.7646 7.97842C14.0866 8.78246 14.25 9.63051 14.25 10.4996C14.25 14.0837 11.4798 16.9999 8.075 16.9999C4.6702 16.9999 1.9 14.0837 1.9 10.4996C1.9 6.91536 4.6702 3.99921 8.075 3.99921C8.987 3.99921 9.8705 4.20922 10.6989 4.62324C11.0609 4.80425 11.4941 4.72625 11.7781 4.42723L12.7414 3.41318L15.0062 5.7903L13.9688 6.88236C13.8348 7.02279 13.7438 7.20219 13.7074 7.3975C13.671 7.59281 13.6909 7.79511 13.7646 7.97842Z" fill="inherit"/>
<path d="M3.8 10.4995C3.79844 11.0908 3.9083 11.6765 4.12322 12.2227C4.33815 12.7689 4.65387 13.2648 5.0521 13.6817L6.3954 12.2676C5.947 11.7946 5.7 11.1676 5.7 10.4995C5.7 9.83151 5.947 9.20448 6.3954 8.73145C6.61549 8.4986 6.87725 8.314 7.16555 8.18835C7.45386 8.06269 7.76297 7.99848 8.075 7.99942V5.99931C7.51336 5.99761 6.95698 6.11323 6.43809 6.33948C5.9192 6.56573 5.44811 6.89812 5.0521 7.31738C4.65387 7.73428 4.33815 8.2302 4.12322 8.77642C3.9083 9.32264 3.79844 9.90832 3.8 10.4995Z" fill="inherit"/>
</svg>
