<svg width="20" height="20" viewBox="0 0 20 20" fill="none" xmlns="http://www.w3.org/2000/svg">
<circle cx="10" cy="10" r="9" stroke="inherit" stroke-width="2"/>
<path d="M9.68234 5.04154C8.94124 5.31974 8.76466 6.23241 9.35292 6.74567C9.42351 6.81231 9.52152 6.87506 9.56469 6.8906C9.64305 6.91411 9.64694 6.94538 9.64694 7.47827V8.03854L9.51354 8.06205C9.25859 8.10906 8.81949 8.36375 8.58808 8.59494C8.35666 8.82612 8.10192 9.26477 8.05486 9.51946L8.03133 9.65274H7.47049C6.93727 9.65274 6.90576 9.64885 6.88223 9.57036C6.86647 9.52723 6.80386 9.42932 6.73716 9.3588C6.27432 8.83 5.49803 8.90441 5.11765 9.51558C5.01576 9.68401 5 9.73879 5 10.0015C5 10.2561 5.01576 10.3267 5.10599 10.4794C5.23142 10.6909 5.41188 10.8555 5.6079 10.9376C5.78837 11.012 6.18041 11.012 6.35699 10.9376C6.54523 10.8555 6.80406 10.6204 6.86279 10.4753L6.90985 10.3577H7.47069H8.03153L8.05506 10.491C8.10212 10.7457 8.35707 11.1844 8.58828 11.4155C8.8197 11.6467 9.25879 11.9012 9.51374 11.9482L9.64715 11.9717V12.532C9.64715 13.0647 9.64326 13.0962 9.56489 13.1197C9.52172 13.1354 9.42371 13.198 9.35312 13.2646C8.82379 13.727 8.89827 14.5025 9.51006 14.8825C9.67866 14.9843 9.73349 15 9.99642 15C10.2514 15 10.322 14.9843 10.4748 14.8943C10.6866 14.769 10.8394 14.6045 10.9297 14.3968C11.008 14.2165 11.0119 13.8249 10.9335 13.6446C10.8513 13.4565 10.616 13.198 10.4707 13.1393L10.3531 13.0923V12.532V11.9717L10.4865 11.9482C10.7414 11.9012 11.1805 11.6465 11.4119 11.4155C11.6431 11.1844 11.8981 10.7455 11.9451 10.4908L11.9687 10.3575H12.5295H13.0904L13.1374 10.4751C13.1963 10.62 13.455 10.8551 13.6432 10.9374C13.8237 11.0157 14.2157 11.0118 14.3962 10.9335C14.6041 10.8434 14.7688 10.6907 14.8942 10.4792C14.9844 10.3265 15 10.2557 15 10.0012C15 9.73879 14.9842 9.68401 14.8823 9.51538C14.502 8.9042 13.7255 8.8298 13.2628 9.3586C13.1961 9.42912 13.1335 9.52703 13.1178 9.57016C13.0942 9.64844 13.0629 9.65253 12.5295 9.65253H11.9687L11.9451 9.51926C11.8981 9.26457 11.6431 8.82591 11.4117 8.59473C11.1803 8.36355 10.7412 8.10886 10.4863 8.06184L10.3529 8.03834V7.47806V6.91778L10.4705 6.87077C10.6156 6.81211 10.8509 6.55353 10.9333 6.36548C11.0078 6.18928 11.0078 5.79743 10.9333 5.61715C10.8511 5.42133 10.6864 5.24104 10.4863 5.12351C10.2745 4.99841 9.898 4.96325 9.68234 5.04154ZM10.5 6.5C10.649 6.64492 10.3608 6.09934 10.2119 6.23241C9.89821 6.51837 9.90987 6.79762 10.2119 6.5C10.2708 6.43725 10.2784 6.59766 10.3529 6.59766C10.4273 6.59766 10.4411 6.43725 10.5 6.5ZM9.99642 9.51946C10.2788 9.64865 8.19472 9.97774 8.32812 10.2637C8.41447 10.4479 8.58828 10.7845 8.58828 11.0625C8.58828 11.4621 9.41897 11.1531 9.15625 11.4155C8.89353 11.678 10.3999 11.3176 9.9999 11.3176C9.72142 11.3176 9.63139 11.3019 9.44704 11.2158C8.69406 10.8632 9.63528 10.8222 10.0981 10.125C10.2393 9.90956 11.1257 9.77415 11.4119 9.65274C11.7139 9.52723 9.68275 9.37045 9.99642 9.51946ZM6 10.5C6.2353 10.7978 6.10982 10.4753 5.78817 10.2637C5.58805 10.1345 5.38835 10.6098 5.6079 10.5C5.76873 10.4217 5.5961 11.3549 6 10.5ZM14.2941 9.82096C14.5255 10.1501 14.2666 9.75065 14 9.45283C13.8901 9.33141 13.6627 9.93073 13.7646 9.79746C13.8941 9.63291 14.1726 9.64477 14.2941 9.82096ZM9.78444 14.5C9.9688 14.6607 10.3256 14.2791 10.0981 14.3379C9.8667 14.3968 10.6485 13.9305 10.6562 13.6875C10.6601 13.5307 9.83928 13.6875 10.0001 13.6875C10.0627 13.6877 9.72961 14.453 9.78444 14.5Z" fill="inherit"/>
</svg>
