<svg width="13" height="19" viewBox="0 0 13 19" fill="none" xmlns="http://www.w3.org/2000/svg">
<path fill-rule="evenodd" clip-rule="evenodd" d="M5.93088 0.0205745C2.14888 0.249841 0.172574 2.33668 0 6.1104H3.81515C3.86292 4.80319 4.61172 3.82596 6.00596 3.68188C7.37452 3.54033 8.67289 3.85794 9.06613 4.76963C9.4909 5.75446 8.53736 6.8989 8.08399 7.37928C7.24485 8.27006 5.88181 8.91986 5.17526 9.88095C4.48269 10.8227 4.35952 12.0618 4.30622 13.5784H7.66864C7.71577 12.6087 7.78207 11.6799 8.23479 11.0773C8.97123 10.0982 10.071 9.63933 10.9927 8.86603C11.8731 8.12693 12.7994 7.23615 12.9567 5.85738C13.4289 1.73089 9.9719 -0.225159 5.93088 0.0205745Z" fill="#848386"/>
<path d="M6.01732 19C7.18976 19 8.14021 18.0879 8.14021 16.9628C8.14021 15.8378 7.18976 14.9257 6.01732 14.9257C4.84489 14.9257 3.89444 15.8378 3.89444 16.9628C3.89444 18.0879 4.84489 19 6.01732 19Z" fill="#848386"/>
</svg>
