<svg width="21" height="18" viewBox="0 0 21 18" fill="none" xmlns="http://www.w3.org/2000/svg">
<path d="M16.0105 15.9481L13.9471 16.9596C13.8859 16.9894 13.817 17.0027 13.7482 16.998C13.6793 16.9934 13.6132 16.9709 13.5572 16.9331C13.5013 16.8953 13.4576 16.8436 13.4312 16.784C13.4048 16.7243 13.3966 16.659 13.4075 16.5952L13.8018 14.4522L12.1326 12.9349C12.0828 12.8899 12.0475 12.8326 12.0308 12.7697C12.0141 12.7068 12.0167 12.6407 12.0382 12.5791C12.0597 12.5174 12.0993 12.4627 12.1524 12.4211C12.2056 12.3795 12.2702 12.3527 12.3388 12.3438L14.6454 12.031L15.6771 10.0817C15.7079 10.0237 15.7555 9.97483 15.8144 9.94068C15.8733 9.90653 15.9412 9.88844 16.0105 9.88844C16.0798 9.88844 16.1477 9.90653 16.2067 9.94068C16.2656 9.97483 16.3131 10.0237 16.344 10.0817L17.3757 12.031L19.6823 12.3438C19.7507 12.3531 19.815 12.38 19.8679 12.4216C19.9209 12.4633 19.9603 12.5179 19.9817 12.5794C20.0032 12.6409 20.0058 12.7068 19.9893 12.7696C19.9728 12.8325 19.9379 12.8897 19.8884 12.9349L18.2193 14.4522L18.6126 16.5943C18.6244 16.6582 18.6168 16.7239 18.5907 16.7839C18.5646 16.844 18.521 16.896 18.4649 16.934C18.4088 16.9721 18.3425 16.9946 18.2733 16.9992C18.2042 17.0037 18.1351 16.99 18.0739 16.9596L16.0105 15.9481ZM4.99058 15.9481L2.92719 16.9596C2.86595 16.9894 2.79707 17.0027 2.72822 16.998C2.65937 16.9934 2.59327 16.9709 2.5373 16.9331C2.48133 16.8953 2.43769 16.8436 2.41125 16.784C2.38482 16.7243 2.37662 16.659 2.38759 16.5952L2.78184 14.4522L1.1127 12.9349C1.06288 12.8899 1.0276 12.8326 1.0109 12.7697C0.994194 12.7068 0.996735 12.6407 1.01823 12.5791C1.03973 12.5174 1.07931 12.4627 1.13247 12.4211C1.18562 12.3795 1.25021 12.3527 1.31885 12.3438L3.62543 12.031L4.65713 10.0817C4.68798 10.0237 4.73554 9.97483 4.79445 9.94068C4.85336 9.90653 4.92128 9.88844 4.99058 9.88844C5.05988 9.88844 5.1278 9.90653 5.18671 9.94068C5.24562 9.97483 5.29317 10.0237 5.32403 10.0817L6.35572 12.031L8.66231 12.3438C8.73075 12.3531 8.79507 12.38 8.84799 12.4216C8.90091 12.4633 8.94033 12.5179 8.96178 12.5794C8.98322 12.6409 8.98585 12.7068 8.96936 12.7696C8.95287 12.8325 8.91792 12.8897 8.86846 12.9349L7.19932 14.4522L7.59262 16.5943C7.60442 16.6582 7.59684 16.7239 7.57074 16.7839C7.54465 16.844 7.50108 16.896 7.44498 16.934C7.38888 16.9721 7.3225 16.9946 7.25339 16.9992C7.18427 17.0037 7.11518 16.99 7.05397 16.9596L4.99058 15.9481V15.9481ZM10.5006 7.05966L8.43716 8.07117C8.37593 8.10099 8.30704 8.11429 8.23819 8.1096C8.16935 8.10492 8.10325 8.08241 8.04727 8.04461C7.9913 8.00681 7.94766 7.9552 7.92123 7.89553C7.89479 7.83587 7.8866 7.77051 7.89756 7.70674L8.29181 5.56374L6.62267 4.04648C6.57285 4.00142 6.53757 3.94416 6.52087 3.88124C6.50417 3.81831 6.50671 3.75226 6.5282 3.69063C6.5497 3.62899 6.58929 3.57426 6.64244 3.53266C6.6956 3.49107 6.76018 3.4643 6.82882 3.4554L9.13541 3.14253L10.1671 1.19329C10.198 1.13524 10.2455 1.08639 10.3044 1.05224C10.3633 1.01809 10.4313 1 10.5006 1C10.5698 1 10.6378 1.01809 10.6967 1.05224C10.7556 1.08639 10.8031 1.13524 10.834 1.19329L11.8657 3.14253L14.1723 3.4554C14.2407 3.46461 14.305 3.49156 14.358 3.53319C14.4109 3.57482 14.4503 3.62948 14.4717 3.69098C14.4932 3.75248 14.4958 3.81837 14.4793 3.8812C14.4628 3.94402 14.4279 4.00127 14.3784 4.04648L12.7093 5.56374L13.1026 7.70585C13.1144 7.76973 13.1068 7.83543 13.0807 7.89548C13.0546 7.95553 13.011 8.00753 12.955 8.04558C12.8989 8.08362 12.8325 8.10619 12.7634 8.11071C12.6942 8.11524 12.6252 8.10154 12.5639 8.07117L10.5006 7.05966Z" stroke="#848386" stroke-width="2" stroke-linecap="round" stroke-linejoin="round"/>
</svg>
