<svg width="266" height="45" viewBox="0 0 266 45" fill="none" xmlns="http://www.w3.org/2000/svg">
<path d="M19.6136 0.505505C15.3929 0.930103 11.3166 2.60325 8.06386 5.22754C6.95981 6.11929 5.1763 7.95376 4.36123 9.03211C2.08531 12.0642 0.675436 15.5372 0.106345 19.4778C-0.0545422 20.6324 -0.0292788 23.9104 0.157759 25.1249C0.752112 28.9888 2.10259 32.2416 4.39535 35.3073C5.17674 36.3604 7.48679 38.6705 8.53987 39.4518C12.2593 42.229 16.387 43.6979 20.973 43.8592C25.941 44.0462 30.7645 42.5176 34.8412 39.4603C35.8775 38.6873 37.7372 36.8785 38.578 35.8339C41.7204 31.9274 43.4272 27.0954 43.4356 22.1101C43.4356 17.2356 41.6694 12.2671 38.5527 8.43731C37.7204 7.40993 35.8522 5.60072 34.8417 4.84504C31.8522 2.60325 28.4979 1.20179 24.7527 0.624283C23.6903 0.462952 20.7009 0.386276 19.6136 0.505505ZM23.5202 1.94064C27.4351 2.29743 31.3589 3.87706 34.433 6.33957C38.1104 9.29494 40.6496 13.4395 41.6176 18.0675C42.1189 20.4964 42.1189 23.8085 41.6176 26.2373C40.7006 30.6278 38.2629 34.7467 34.9086 37.5748C31.8938 40.114 28.3441 41.6936 24.2847 42.288C23.2826 42.4409 20.1065 42.4409 19.1044 42.288C14.4333 41.6001 10.5609 39.6978 7.36801 36.5133C2.63756 31.817 0.53139 25.0318 1.73738 18.4584C2.72265 13.1678 5.77996 8.45415 10.2299 5.40571C13.1258 3.4099 16.4039 2.2633 20.1659 1.90696C20.8538 1.84712 22.6541 1.86396 23.5202 1.94064Z" fill="url(#paint0_linear_143_1438)"/>
<path d="M21.4311 7.56324C21.3548 7.62263 21.0574 8.11549 20.7689 8.65045C18.391 13.0073 13.72 18.2386 9.43984 21.3127C8.72626 21.8224 8.65845 21.8902 8.65845 22.1535C8.65845 22.4168 8.72626 22.4846 9.43984 22.9943C12.3017 25.0495 15.7752 28.5057 18.1699 31.6649C19.0532 32.8368 20.1909 34.5777 20.8278 35.7585C21.1505 36.3528 21.4306 36.7774 21.5326 36.8031C21.83 36.9051 22.0334 36.7522 22.2882 36.2513C22.9504 34.9434 24.1564 33.0668 25.354 31.4956C27.6893 28.4215 31.1202 25.0331 33.9484 22.9947C34.662 22.485 34.7298 22.4172 34.7298 22.1539C34.7298 21.8907 34.662 21.8228 33.9484 21.3132C31.1291 19.2837 27.7066 15.9032 25.354 12.8123C24.3944 11.5553 23.2904 9.87373 22.645 8.69344C22.3645 8.17532 22.0759 7.69133 21.9997 7.60623C21.8388 7.43559 21.6092 7.41875 21.4311 7.56324Z" fill="url(#paint1_linear_143_1438)"/>
<path d="M74.4056 35.4559L71.1005 28.2378C70.2647 26.4396 69.2136 25.1606 67.9473 24.4008C66.681 23.641 65.0601 23.2611 63.0846 23.2611H62.5147V35H58.9057V8.48298C60.248 8.35635 61.527 8.2677 62.7427 8.21705C63.9837 8.14107 65.3007 8.10308 66.6936 8.10308C69.9354 8.10308 72.3668 8.76157 73.9877 10.0786C75.6339 11.3955 76.4571 13.0924 76.4571 15.1692C76.4571 17.0181 75.8999 18.5123 74.7855 19.652C73.6964 20.7664 72.1135 21.6022 70.0367 22.1594C70.7206 22.4633 71.3284 22.8305 71.8603 23.2611C72.3921 23.6663 72.8987 24.2235 73.3799 24.9326C73.8864 25.6165 74.3929 26.5156 74.8995 27.6299L77.7867 33.8603L74.4056 35.4559ZM62.5147 20.2219H66.6936C68.5171 20.2219 69.9988 19.8167 71.1385 19.0062C72.2782 18.1958 72.848 17.0307 72.848 15.5111C72.848 14.2448 72.3161 13.2064 71.2524 12.396C70.1887 11.5602 68.6691 11.1423 66.6936 11.1423C65.8325 11.1423 65.0601 11.1549 64.3762 11.1803C63.6924 11.2056 63.0719 11.2436 62.5147 11.2942V20.2219ZM90.0266 35.3039C88.4817 35.3039 87.0127 35.2659 85.6198 35.19C84.2521 35.114 83.1631 35.0253 82.3526 34.924V8.48298C83.2391 8.38167 84.3408 8.29303 85.6578 8.21705C86.9747 8.14107 88.4817 8.10308 90.1786 8.10308C93.4204 8.10308 95.9151 8.72358 97.6626 9.96459C99.4101 11.1803 100.284 12.8392 100.284 14.9413C100.284 16.3342 99.904 17.5246 99.1442 18.5123C98.4097 19.4748 97.3333 20.2725 95.9151 20.9057C97.6373 21.5136 98.9416 22.362 99.828 23.451C100.714 24.5148 101.158 25.8317 101.158 27.402C101.158 29.808 100.208 31.7329 98.3084 33.1765C96.4089 34.5948 93.6483 35.3039 90.0266 35.3039ZM85.9617 19.88H90.1406C92.1414 19.88 93.7243 19.4621 94.8893 18.6263C96.0797 17.7905 96.6749 16.7141 96.6749 15.3972C96.6749 13.9789 96.0923 12.9025 94.9273 12.168C93.7623 11.4082 92.1667 11.0283 90.1406 11.0283C89.3048 11.0283 88.545 11.0536 87.8612 11.1043C87.1774 11.1296 86.5442 11.1676 85.9617 11.2183V19.88ZM90.2925 32.3027C92.5466 32.3027 94.3068 31.8975 95.5731 31.087C96.8395 30.2766 97.4726 29.0989 97.4726 27.554C97.4726 26.0344 96.8521 24.844 95.6111 23.9829C94.3701 23.1218 92.5973 22.6912 90.2925 22.6912H85.9617V32.0748C87.304 32.2267 88.7476 32.3027 90.2925 32.3027ZM122.618 35.3799L114.222 23.9829L106.092 35.3039L103.243 33.1385L112.17 21.4756L103.623 10.3065L106.624 8.06509L114.336 18.8543L121.972 8.17906L124.783 10.3065L116.501 21.2856L125.543 33.1385L122.618 35.3799ZM129.358 35V8.407H134.41L141.781 25.2366L149.037 8.407H154.203V35H150.594V13.0038L143.49 28.9976H139.919L132.777 13.0038V35H129.358ZM160.661 35V15.2452H164.08V35H160.661ZM162.371 11.8641C161.712 11.8641 161.142 11.6235 160.661 11.1423C160.205 10.6611 159.977 10.1039 159.977 9.47072C159.977 8.73625 160.192 8.15373 160.623 7.72318C161.054 7.29263 161.636 7.07735 162.371 7.07735C163.029 7.07735 163.586 7.31795 164.042 7.79916C164.523 8.25504 164.764 8.81223 164.764 9.47072C164.764 10.1799 164.549 10.7624 164.118 11.2183C163.688 11.6488 163.105 11.8641 162.371 11.8641ZM176.161 35.4559C174.996 35.4559 173.945 35.2406 173.008 34.81C172.071 34.3542 171.324 33.6324 170.766 32.6446C170.234 31.6569 169.969 30.3779 169.969 28.8076V6.8874H173.388V28.4657C173.388 29.8334 173.666 30.8464 174.223 31.5049C174.806 32.1634 175.604 32.4927 176.617 32.4927C177.098 32.4927 177.567 32.442 178.022 32.3407C178.504 32.2141 178.909 32.0748 179.238 31.9228L180.074 34.6961C179.618 34.8987 179.048 35.076 178.364 35.2279C177.706 35.3799 176.971 35.4559 176.161 35.4559ZM188.923 35.4559C187.758 35.4559 186.707 35.2406 185.77 34.81C184.833 34.3542 184.086 33.6324 183.529 32.6446C182.997 31.6569 182.731 30.3779 182.731 28.8076V6.8874H186.15V28.4657C186.15 29.8334 186.428 30.8464 186.986 31.5049C187.568 32.1634 188.366 32.4927 189.379 32.4927C189.86 32.4927 190.329 32.442 190.785 32.3407C191.266 32.2141 191.671 32.0748 192 31.9228L192.836 34.6961C192.38 34.8987 191.81 35.076 191.127 35.2279C190.468 35.3799 189.734 35.4559 188.923 35.4559ZM196.054 35V15.2452H199.473V35H196.054ZM197.764 11.8641C197.105 11.8641 196.535 11.6235 196.054 11.1423C195.598 10.6611 195.37 10.1039 195.37 9.47072C195.37 8.73625 195.585 8.15373 196.016 7.72318C196.447 7.29263 197.029 7.07735 197.764 7.07735C198.422 7.07735 198.979 7.31795 199.435 7.79916C199.916 8.25504 200.157 8.81223 200.157 9.47072C200.157 10.1799 199.942 10.7624 199.511 11.2183C199.081 11.6488 198.498 11.8641 197.764 11.8641ZM213.871 35.4559C211.997 35.4559 210.313 35.0253 208.819 34.1642C207.324 33.2778 206.147 32.0621 205.286 30.5172C204.45 28.9469 204.032 27.1487 204.032 25.1226C204.032 22.9952 204.462 21.159 205.324 19.614C206.185 18.0691 207.362 16.8788 208.857 16.043C210.351 15.2072 212.022 14.7893 213.871 14.7893C215.72 14.7893 217.379 15.2072 218.848 16.043C220.342 16.8788 221.52 18.0691 222.381 19.614C223.268 21.1336 223.711 22.9445 223.711 25.0466C223.711 27.1487 223.28 28.9849 222.419 30.5552C221.558 32.1001 220.38 33.3031 218.886 34.1642C217.417 35.0253 215.745 35.4559 213.871 35.4559ZM213.871 32.4167C215.872 32.4167 217.43 31.7455 218.544 30.4032C219.658 29.0356 220.216 27.2754 220.216 25.1226C220.216 23.8056 219.937 22.6026 219.38 21.5136C218.823 20.3992 218.063 19.5127 217.1 18.8543C216.163 18.1704 215.087 17.8285 213.871 17.8285C211.871 17.8285 210.313 18.487 209.199 19.804C208.084 21.121 207.527 22.8685 207.527 25.0466C207.527 26.3636 207.806 27.592 208.363 28.7317C208.92 29.846 209.667 30.7451 210.604 31.4289C211.567 32.0874 212.656 32.4167 213.871 32.4167ZM228.256 35V15.2452H231.562V18.5503C232.271 17.4866 233.17 16.6002 234.259 15.891C235.373 15.1566 236.69 14.7893 238.21 14.7893C240.439 14.7893 242.097 15.4605 243.187 16.8028C244.301 18.1451 244.858 19.918 244.858 22.1214V35H241.439V22.5013C241.439 21.083 241.097 19.9433 240.413 19.0822C239.755 18.2211 238.83 17.7905 237.64 17.7905C236.475 17.7905 235.373 18.2084 234.335 19.0442C233.296 19.8547 232.41 20.8171 231.676 21.9314V35H228.256ZM256.057 35.4559C254.563 35.4559 253.208 35.2659 251.993 34.886C250.802 34.5061 249.814 34.0123 249.029 33.4044L250.473 30.5552C251.131 31.1124 251.955 31.5809 252.942 31.9608C253.955 32.3154 255.032 32.4927 256.171 32.4927C257.59 32.4927 258.653 32.2647 259.363 31.8088C260.097 31.3276 260.464 30.7198 260.464 29.9853C260.464 29.4535 260.325 28.9849 260.046 28.5797C259.793 28.1745 259.312 27.7819 258.603 27.402C257.894 26.9968 256.868 26.5662 255.526 26.1103C253.677 25.4772 252.284 24.73 251.347 23.8689C250.435 22.9825 249.979 21.7668 249.979 20.2219C249.979 18.7023 250.638 17.4233 251.955 16.3849C253.297 15.3212 255.146 14.7893 257.501 14.7893C258.767 14.7893 259.894 14.9286 260.882 15.2072C261.87 15.4605 262.756 15.7897 263.541 16.1949L262.592 19.0062C261.908 18.601 261.123 18.2717 260.236 18.0185C259.375 17.7652 258.413 17.6386 257.349 17.6386C256.032 17.6386 255.032 17.9045 254.348 18.4364C253.664 18.9682 253.322 19.5507 253.322 20.1839C253.322 20.7917 253.588 21.3109 254.12 21.7415C254.652 22.172 255.69 22.6406 257.235 23.1471C259.742 23.9829 261.49 24.9073 262.478 25.9204C263.465 26.9335 263.959 28.1998 263.959 29.7194C263.959 31.4923 263.238 32.8979 261.794 33.9363C260.376 34.9493 258.463 35.4559 256.057 35.4559Z" fill="white"/>
<defs>
<linearGradient id="paint0_linear_143_1438" x1="0" y1="22.161" x2="43.4356" y2="22.161" gradientUnits="userSpaceOnUse">
<stop stop-color="#8A57DE"/>
<stop offset="1" stop-color="#DEAFBD"/>
</linearGradient>
<linearGradient id="paint1_linear_143_1438" x1="8.65845" y1="22.1493" x2="34.7298" y2="22.1493" gradientUnits="userSpaceOnUse">
<stop stop-color="#8A57DE"/>
<stop offset="1" stop-color="#DEAFBD"/>
</linearGradient>
</defs>
</svg>
