<svg width="21" height="21" viewBox="0 0 21 21" fill="none" xmlns="http://www.w3.org/2000/svg">
<path d="M5.94 15.44C7.82881 15.44 9.36 13.9088 9.36 12.02C9.36 10.1312 7.82881 8.59998 5.94 8.59998C4.05118 8.59998 2.52 10.1312 2.52 12.02C2.52 13.9088 4.05118 15.44 5.94 15.44Z" stroke="#848386" stroke-width="2" stroke-linecap="round" stroke-linejoin="round"/>
<path d="M15.06 7.84C16.9488 7.84 18.48 6.30881 18.48 4.42C18.48 2.53119 16.9488 1 15.06 1C13.1712 1 11.64 2.53119 11.64 4.42C11.64 6.30881 13.1712 7.84 15.06 7.84Z" stroke="#848386" stroke-width="2" stroke-linecap="round" stroke-linejoin="round"/>
<path d="M1 20C1 18.48 2.14 15.44 5.94 15.44C9.74 15.44 10.88 18.48 10.88 20M10.12 12.4C10.12 10.88 11.26 7.84003 15.06 7.84003C18.86 7.84003 20 10.88 20 12.4H10.12Z" stroke="#848386" stroke-width="2" stroke-linecap="round" stroke-linejoin="round"/>
</svg>
