<svg width="19" height="19" viewBox="0 0 19 19" fill="none" xmlns="http://www.w3.org/2000/svg">
<path d="M8.86667 0.0195027C3.82111 0.329511 0 4.51962 0 9.30975V15.9999C0 17.66 1.41444 19 3.16667 19H4.22222C5.38333 19 6.33333 18.1 6.33333 16.9999V12.9998C6.33333 11.8998 5.38333 10.9998 4.22222 10.9998H2.11111V9.28975C2.11111 5.44965 5.23556 2.10956 9.27833 1.99955C10.2672 1.9713 11.252 2.13149 12.1742 2.47062C13.0965 2.80975 13.9375 3.32092 14.6473 3.97379C15.3571 4.62667 15.9212 5.40796 16.3063 6.27131C16.6914 7.13466 16.8895 8.06248 16.8889 8.99974V10.9998H14.7778C13.6167 10.9998 12.6667 11.8998 12.6667 12.9998V16.9999C12.6667 18.1 13.6167 19 14.7778 19H15.8333C17.5856 19 19 17.66 19 15.9999V8.99974C19 3.8296 14.3978 -0.320506 8.86667 0.0195027Z" fill="#848386"/>
</svg>
